<?xml version="1.0"?>
<!--Icons from directory ""-->
<svg xmlns="http://www.w3.org/2000/svg" width="300" height="2783" viewBox="0 0 300 2783"><svg xmlns:xlink="http://www.w3.org/1999/xlink" id="businessman-svgrepo-com" style="enable-background:new 0 0 481.291 481.291" xml:space="preserve" height="300" viewBox="0 0 481.291 481.291" width="300" version="1.1" y="0" x="0px">	<g id="businessman-svgrepo-com-Layer_2_16_">			<path d="m138.81 146.22c3.12 40.976 19.417 23.314 22.779 41.27 5.59 29.848 32.016 51.436 48.466 58.893 9.597 4.348 19.48 6.53 29.871 6.704v0.009c0.036 0 0.072-0.004 0.108-0.004s0.072 0.004 0.108 0.004v-0.009c10.39-0.174 20.272-2.355 29.871-6.704 16.45-7.457 42.876-29.045 48.466-58.893 3.362-17.955 19.659-0.294 22.779-41.27 0-16.33-8.898-20.394-8.898-20.394s4.523-24.171 6.295-42.77c2.19-23.183-13.53-83.06-97.41-83.06-0.367 0-0.707 0.02-1.065 0.024-0.013 0-0.025 0-0.038-0.001v-0.004c-0.036 0.001-0.072 0.002-0.108 0.002s-0.072-0.001-0.108-0.002v0.005c-0.013 0.001-0.025 0.001-0.038 0.001-0.358-0.005-0.698-0.024-1.065-0.024-83.878 0-99.604 59.877-97.409 83.056 1.771 18.599 6.295 42.77 6.295 42.77s-8.89 4.06-8.89 20.39z"/>			<path d="m430.31 347.37c-42.308-21.523-103.63-48.406-106.57-49.355-0.033-0.012-0.058-0.014-0.09-0.024-1.721-0.613-3.571-0.953-5.504-0.953-7.188 0-13.285 4.604-15.547 11.021-0.012-0.008-0.024-0.013-0.036-0.021-10.92 26.315-30.979 73.223-43.434 95.842l-3-63.413s18.705-39.699 20.752-43.336c4.82-8.525 0.479-15.783-8.557-15.783h-26.926-0.038-0.216-0.038-0.462s-0.308 0-0.462 0h-0.038-0.216-0.038-26.926c-9.036 0-13.376 7.258-8.557 15.783 2.048 3.637 20.752 43.336 20.752 43.336l-2.999 63.413c-12.455-22.619-32.514-69.524-43.434-95.842-0.012 0.008-0.024 0.013-0.036 0.021-2.262-6.414-8.359-11.021-15.547-11.021-1.933 0-3.783 0.34-5.504 0.953-0.032 0.012-0.057 0.015-0.09 0.024-2.942 0.949-64.265 27.832-106.57 49.355-19 9.666-30.467 21.688-30.467 34.34v99.58h440.3v-99.58c0-12.66-11.47-24.68-30.47-34.35z"/>	</g></svg><svg xmlns:xlink="http://www.w3.org/1999/xlink" id="calculating-device-svgrepo-com" style="enable-background:new 0 0 481.203 481.203" xml:space="preserve" viewBox="0 0 481.203 481.203" version="1.1" y="300" x="0px" width="32" height="32"><g fill="#010002">	<path d="m371.84 0h-262.48c-16.345 0-29.643 13.306-29.643 29.645v421.92c0 16.347 13.306 29.637 29.645 29.637h262.48c16.347 0 29.645-13.298 29.645-29.637v-421.92c0.01-16.334-13.3-29.64-29.64-29.64zm-11 440.57h-240.49v-399.93h240.49v399.93z"/>	<rect height="80.814" width="191.33" y="70.8" x="144.93"/>	<path d="m154.26 237.09h17.094c5.154 0 9.323-4.178 9.323-9.323v-17.094c0-5.154-4.178-9.323-9.323-9.323h-17.094c-5.154 0-9.323 4.178-9.323 9.323v17.094c-0.01 5.15 4.17 9.32 9.32 9.32z"/>	<path d="m224.36 201.34h-17.094c-5.154 0-9.323 4.178-9.323 9.323v17.094c0 5.154 4.178 9.323 9.323 9.323h17.094c5.154 0 9.323-4.178 9.323-9.323v-17.094c0.02-5.14-4.16-9.32-9.32-9.32z"/>	<path d="m275.66 201.34h-17.094c-5.154 0-9.323 4.178-9.323 9.323v17.094c0 5.154 4.178 9.323 9.323 9.323h17.094c5.154 0 9.323-4.178 9.323-9.323v-17.094c0-5.14-4.18-9.32-9.32-9.32z"/>	<path d="m154.26 293.04h17.094c5.154 0 9.323-4.178 9.323-9.323v-17.094c0-5.154-4.178-9.323-9.323-9.323h-17.094c-5.154 0-9.323 4.178-9.323 9.323v17.094c-0.01 5.14 4.17 9.32 9.32 9.32z"/>	<path d="m224.36 257.3h-17.094c-5.154 0-9.323 4.178-9.323 9.323v17.094c0 5.154 4.178 9.323 9.323 9.323h17.094c5.154 0 9.323-4.178 9.323-9.323v-17.094c0.02-5.15-4.16-9.32-9.32-9.32z"/>	<path d="m275.66 257.3h-17.094c-5.154 0-9.323 4.178-9.323 9.323v17.094c0 5.154 4.178 9.323 9.323 9.323h17.094c5.154 0 9.323-4.178 9.323-9.323v-17.094c0-5.15-4.18-9.32-9.32-9.32z"/>	<path d="m326.94 257.3h-17.094c-5.154 0-9.323 4.178-9.323 9.323v73.043c0 5.154 4.178 9.323 9.323 9.323h17.094c5.154 0 9.323-4.178 9.323-9.323v-73.043c0.01-5.15-4.17-9.32-9.32-9.32z"/>	<path d="m154.26 348.99h17.094c5.154 0 9.323-4.178 9.323-9.323v-17.094c0-5.154-4.178-9.323-9.323-9.323h-17.094c-5.154 0-9.323 4.178-9.323 9.323v17.094c-0.01 5.15 4.17 9.32 9.32 9.32z"/>	<path d="m224.36 313.25h-17.094c-5.154 0-9.323 4.178-9.323 9.323v17.094c0 5.154 4.178 9.323 9.323 9.323h17.094c5.154 0 9.323-4.178 9.323-9.323v-17.094c0.02-5.15-4.16-9.32-9.32-9.32z"/>	<path d="m275.66 313.25h-17.094c-5.154 0-9.323 4.178-9.323 9.323v17.094c0 5.154 4.178 9.323 9.323 9.323h17.094c5.154 0 9.323-4.178 9.323-9.323v-17.094c0-5.15-4.18-9.32-9.32-9.32z"/>	<path d="m154.26 404.94h17.094c5.154 0 9.323-4.178 9.323-9.323v-17.094c0-5.154-4.178-9.323-9.323-9.323h-17.094c-5.154 0-9.323 4.178-9.323 9.323v17.094c-0.01 5.15 4.17 9.32 9.32 9.32z"/>	<path d="m224.36 369.2h-17.094c-5.154 0-9.323 4.178-9.323 9.323v17.094c0 5.154 4.178 9.323 9.323 9.323h17.094c5.154 0 9.323-4.178 9.323-9.323v-17.094c0.02-5.15-4.16-9.32-9.32-9.32z"/>	<path d="m275.66 369.2h-17.094c-5.154 0-9.323 4.178-9.323 9.323v17.094c0 5.154 4.178 9.323 9.323 9.323h17.094c5.154 0 9.323-4.178 9.323-9.323v-17.094c0-5.15-4.18-9.32-9.32-9.32z"/>	<path d="m326.94 369.2h-17.094c-5.154 0-9.323 4.178-9.323 9.323v17.094c0 5.154 4.178 9.323 9.323 9.323h17.094c5.154 0 9.323-4.178 9.323-9.323v-17.094c0.01-5.15-4.17-9.32-9.32-9.32z"/>	<path d="m326.94 201.34h-17.094c-5.154 0-9.323 4.178-9.323 9.323v17.094c0 5.154 4.178 9.323 9.323 9.323h17.094c5.154 0 9.323-4.178 9.323-9.323v-17.094c0.01-5.14-4.17-9.32-9.32-9.32z"/></g></svg><svg xmlns:xlink="http://www.w3.org/1999/xlink" enable-background="new 0 0 512 512" version="1.1" viewBox="0 0 512 512" width="32" height="32" id="calendar-svgrepo-com" y="332"><path d="m138.3 137.2c11.3 0 20.4-9.1 20.4-20.4v-85.4c0-11.3-9.1-20.4-20.4-20.4s-20.4 9.1-20.4 20.4v85.4c0 11.3 9.2 20.4 20.4 20.4z"/><path d="m373.7 137.2c11.3 0 20.4-9.1 20.4-20.4v-85.4c0-11.3-9.1-20.4-20.4-20.4s-20.4 9.1-20.4 20.4v85.4c0 11.3 9.1 20.4 20.4 20.4z"/><path d="m356.6 401.9c-11.2 10.3-26.4 15.5-45.6 15.5-15.6 0-28.7-2.3-39.3-7v-30.4c11.1 6.8 22.8 10.2 35.3 10.2 9.4 0 16.8-2.2 22.1-6.7s8-10.6 8-18.2c0-16-11.3-24-34-24-7.4 0-16.3 0.7-26.8 2v-90.4h89.7v29.1h-59.2v32.4c4.7-0.5 9.2-0.7 13.4-0.7 16.6 0 29.7 4.4 39.1 13.1s14.1 20.5 14.1 35.2c0.1 16.2-5.5 29.6-16.8 39.9zm-114.8 12.7h-102.4v-28.2h33.6v-100.8l-34.4 7.5v-28.9l70-14.1v136.4h33.3v28.1h-0.1zm238.8-359.8h-45.7v62c0 33.8-27.5 61.2-61.3 61.2s-61.3-27.5-61.3-61.2v-62h-112.7v62c0 33.8-27.5 61.2-61.2 61.2-33.8 0-61.2-27.5-61.2-61.2v-62h-45.8c-11.3 0-20.4 9.2-20.4 20.4v405.4c0 11.3 9.1 20.4 20.4 20.4h449.2c11.3 0 20.4-9.1 20.4-20.4v-405.4c5.6843e-14 -11.2-9.1-20.4-20.4-20.4z"/></svg><svg xmlns:xlink="http://www.w3.org/1999/xlink" id="drawing-house-plan-svgrepo-com" style="enable-background:new 0 0 475.902 475.902" xml:space="preserve" viewBox="0 0 475.902 475.902" version="1.1" y="364" x="0px" width="32" height="32"><g fill="#010002">	<path d="m13.734 51.167l0.016 0.016c0.26 0.61 0.545 0.878 0.545 0.878l0.179-0.187 121.85 116.54v307.49h327.66v-457.23h-327.66v53.405l-74.465-71.215-0.366 0.382c-2.471-0.902-16.395-6.048-35.782 14.225s-12.981 33.27-11.973 35.7zm339.62 285.53h69.987v98.559h-69.987v-98.56zm0-184.92h69.987v176.8h-69.987v-176.8zm0-92.468h11.177v84.334h-11.177v-84.338zm37.53 0h11.177v84.334h-11.177v-84.338zm32.46 84.338h-13.152v-84.338h13.152v84.338zm-40.58 0h-10.096v-84.338h10.096v84.338zm-37.54 0h-10.161v-84.338h10.161v84.338zm-29.46-84.338h11.177v84.334h-11.177v-84.338zm-138.8 0h130.67v84.334h-42.675v8.129h80.27v283.49h-53.852v-18.85h-16.257v18.85h-98.153v-151.41h12.803v-16.257h-12.803v-60.322l7.34 7.023c1.796-8.99 8.348-20.053 16.639-29.515 10.006-11.437 21.573-19.622 30.376-21.858l-54.356-51.99v-51.618z"/>	<path d="m204.46 187.19c-11.453 13.315-15.818 24.768-16.038 30.539-0.065 1.756 3.877 3.983 4.576 3.983h0.041l9.307 1.114 6.934 0.829 31.653 3.796c0-0.016-0.016-0.033-0.016-0.057-0.187-2.365 0.894-5.121 2.967-7.56 1.008-1.179 3.65-3.796 6.942-4.032l-9.031-30.807-1.951-6.657-2.43-8.307c0.146-1.829-1.951-4.178-2.536-4.178-5.86 0.02-18.51 7.5-30.41 21.35zm26.12-11.56l1.463 4.999 1.951 6.657 7.064 24.093c-1.561 1.195-2.707 2.414-3.365 3.195-1.081 1.268-1.992 2.609-2.731 3.975l-24.719-2.959-6.934-0.829-5.918-0.707c1.626-4.991 5.69-12.794 13.225-21.557 8.01-9.31 15.4-14.49 19.98-16.87z"/>	<path d="m246.23 227.58c0.041 0.057 0.041 0.146 0.089 0.195l7.332 6.137c0.471 0.39 2.203 0.951 3.853 0.951 1.105 0 2.17-0.252 2.788-0.967 1.544-1.78-0.26-5.788-1.049-6.446l-7.332-6.137c-0.171-0.146-0.398-0.211-0.667-0.211-0.049 0-0.106 0.024-0.154 0.033-0.935 0.081-2.26 0.902-3.398 2.219-1.45 1.67-2.02 3.46-1.46 4.23z"/>	<polygon points="275.12 293.57 291.37 293.57 291.37 267.61 263.83 267.61 263.83 283.86 275.12 283.86"/>	<rect height="16.257" width="23.475" y="267.61" x="215.06"/>	<rect height="23.475" width="16.257" y="318.87" x="275.12"/>	<rect height="23.475" width="16.257" y="367.64" x="275.12"/></g></svg><svg xmlns:xlink="http://www.w3.org/1999/xlink" id="employee-near-office-table-with-calendar-and-piles-of-work-svgrepo-com" style="enable-background:new 0 0 221.627 221.627" xml:space="preserve" height="222" viewBox="0 0 221.627 221.627" width="222" version="1.1" y="396" x="0px">		<path d="m113.11 74.793l-26.078-44.234c-2.076-3.517-6.604-4.683-10.102-2.618-0.63 0.374-1.078 0.892-1.553 1.397-1.577-8.705-9.158-15.32-18.313-15.32-9.164 0-16.748 6.609-18.325 15.308-0.466-0.493-0.917-1.011-1.541-1.385-3.504-2.064-8.025-0.904-10.099 2.618l-26.076 44.234c-1.629 2.756-1.285 6.254 0.834 8.641 1.434 1.617 3.461 2.481 5.526 2.481 0.996 0 2-0.204 2.962-0.621l19.933-8.714c0.685-0.24 2.987-1.014 6.129-1.912v50.367l-5.873 73.021c-0.387 4.859 3.243 9.146 8.117 9.53 0.244 0.012 0.481 0.023 0.719 0.023 4.563 0 8.442-3.501 8.817-8.141l5.313-66.007c1.09 0.487 2.292 0.78 3.571 0.78 1.272 0 2.475-0.293 3.568-0.78l5.312 66.007c0.381 4.628 4.25 8.141 8.814 8.141 0.238 0 0.475-0.012 0.719-0.023 4.877-0.384 8.503-4.671 8.117-9.53l-5.879-73.021v-50.372c3.148 0.898 5.443 1.671 6.128 1.912l19.936 8.714c0.953 0.411 1.958 0.621 2.962 0.621 2.064 0 4.083-0.871 5.523-2.481 2.12-2.387 2.46-5.885 0.84-8.641zm-53.214-18.228l-1.851 3.705h-0.045l4.972 38.703-5.9 10.303-5.903-10.303 4.969-38.703h-0.055l-1.848-3.705c-12.96 0.657-26.978 5.432-28.948 6.132l14.103-23.934c2.433 8.406 9.377 16.164 17.683 16.164 8.293 0 15.241-7.77 17.67-16.176l14.106 23.946c-2.005-0.717-16.001-5.478-28.953-6.136z"/>		<path d="m124.18 104.11h26.02c1.856 0 3.367-1.507 3.367-3.352v-0.42c0-1.857-1.511-3.379-3.367-3.379h-26.02c-1.851 0-3.367 1.522-3.367 3.379v0.411c0.01 1.85 1.52 3.36 3.37 3.36z"/>		<path d="m124.18 112.73h26.02c1.856 0 3.367-1.51 3.367-3.367v-0.408c0-1.863-1.511-3.37-3.367-3.37h-26.02c-1.851 0-3.367 1.507-3.367 3.37v0.408c0.01 1.86 1.52 3.37 3.37 3.37z"/>		<path d="m124.18 121.35h26.02c1.856 0 3.367-1.504 3.367-3.36v-0.421c0-1.851-1.511-3.361-3.367-3.361h-26.02c-1.851 0-3.367 1.511-3.367 3.361v0.421c0.01 1.86 1.52 3.36 3.37 3.36z"/>		<path d="m124.18 129.97h26.02c1.856 0 3.367-1.51 3.367-3.349v-0.427c0-1.851-1.511-3.373-3.367-3.373h-26.02c-1.851 0-3.367 1.522-3.367 3.373v0.427c0.01 1.84 1.52 3.35 3.37 3.35z"/>		<path d="m169.68 102.19l-13.013 22.533c-0.925 1.601-0.377 3.665 1.225 4.591l0.365 0.219c1.602 0.907 3.678 0.366 4.598-1.242l13.019-22.529c0.913-1.602 0.365-3.678-1.236-4.601l-0.372-0.207c-1.59-0.92-3.66-0.37-4.59 1.24z"/>		<path d="m175.45 109.37c0 1.857 1.51 3.367 3.355 3.367h26.031c1.845 0 3.354-1.51 3.354-3.367v-0.408c0-1.863-1.51-3.37-3.354-3.37h-26.031c-1.846 0-3.355 1.507-3.355 3.37v0.41z"/>		<path d="m208.19 117.57c0-1.851-1.51-3.361-3.354-3.361h-26.031c-1.846 0-3.355 1.511-3.355 3.361v0.421c0 1.856 1.51 3.36 3.355 3.36h26.031c1.845 0 3.354-1.504 3.354-3.36v-0.42z"/>		<path d="m204.83 122.82h-26.031c-1.846 0-3.355 1.522-3.355 3.373v0.427c0 1.839 1.51 3.349 3.355 3.349h26.031c1.845 0 3.354-1.51 3.354-3.349v-0.427c0.01-1.85-1.5-3.37-3.35-3.37z"/>		<path d="m138.59 81.488h27.688c2.387 0 4.323-1.939 4.323-4.32v-29.255c0-2.39-1.942-4.323-4.323-4.323h-0.64v2.36c0 1.071-0.858 1.939-1.924 1.939-1.06 0-1.931-0.868-1.931-1.939v-2.36h-3.678v2.36c0 1.071-0.858 1.939-1.918 1.939-1.065 0-1.937-0.868-1.937-1.939v-2.36h-3.653v2.36c0 1.071-0.858 1.939-1.924 1.939-1.072 0-1.943-0.868-1.943-1.939v-2.36h-3.671v2.36c0 1.071-0.859 1.939-1.925 1.939s-1.924-0.868-1.924-1.939v-2.36h-0.634c-2.387 0-4.329 1.942-4.329 4.323v29.255c0 2.381 1.94 4.32 4.33 4.32zm-2.59-26.899c0-1.428 1.169-2.594 2.594-2.594h27.688c1.425 0 2.594 1.172 2.594 2.594v22.573c0 1.428-1.175 2.594-2.594 2.594h-27.688c-1.425 0-2.594-1.166-2.594-2.594v-22.573z"/>		<path d="m142.25 73.664c0.451 0.475 0.999 0.828 1.669 1.084 0.651 0.255 1.412 0.38 2.265 0.38 0.755 0 1.443-0.119 2.07-0.341 0.646-0.231 1.182-0.582 1.639-1.017 0.45-0.436 0.81-0.98 1.065-1.617 0.256-0.621 0.384-1.352 0.384-2.143 0-0.594-0.067-1.136-0.195-1.602-0.134-0.475-0.316-0.904-0.554-1.26-0.231-0.369-0.506-0.667-0.828-0.917-0.323-0.256-0.664-0.451-1.048-0.606v-0.095c0.329-0.191 0.646-0.398 0.926-0.654 0.28-0.243 0.529-0.53 0.725-0.853 0.201-0.326 0.371-0.688 0.481-1.099 0.121-0.411 0.183-0.877 0.183-1.41 0-0.792-0.122-1.495-0.359-2.119-0.237-0.603-0.579-1.12-1.011-1.534-0.427-0.411-0.95-0.722-1.547-0.94-0.615-0.204-1.272-0.311-2.016-0.311-0.706 0-1.37 0.118-1.973 0.341-0.597 0.231-1.114 0.569-1.553 0.992-0.427 0.423-0.762 0.947-1.005 1.559-0.237 0.593-0.365 1.266-0.365 2.012v0.731h3.258v-0.5c0-0.84 0.14-1.458 0.426-1.888 0.286-0.42 0.7-0.63 1.236-0.63 0.505 0 0.913 0.198 1.199 0.578 0.293 0.387 0.438 0.993 0.438 1.836 0 0.448-0.055 0.853-0.134 1.209-0.098 0.35-0.226 0.636-0.384 0.867-0.152 0.229-0.347 0.396-0.56 0.518-0.214 0.104-0.445 0.162-0.688 0.162h-0.913v2.637h0.864c0.28 0 0.555 0.048 0.798 0.131 0.262 0.094 0.487 0.231 0.682 0.435 0.201 0.207 0.365 0.494 0.469 0.868 0.122 0.368 0.171 0.816 0.171 1.385 0 0.904-0.177 1.571-0.529 1.994-0.366 0.423-0.835 0.648-1.419 0.648-0.658 0-1.157-0.231-1.492-0.704-0.329-0.462-0.481-1.117-0.481-1.96v-0.554h-3.264v0.475c0 0.816 0.116 1.559 0.348 2.213 0.21 0.67 0.56 1.236 1 1.699z"/>		<path d="m157.18 72.181h-4.013v2.637h10.82v-2.637h-3.684v-15.253h-1.541c-0.414 0.262-0.876 0.505-1.37 0.736-0.499 0.217-1.011 0.424-1.516 0.6-0.506 0.186-1.005 0.329-1.474 0.435-0.481 0.119-0.896 0.198-1.267 0.244v2.088h4.037v11.149z"/>		<polygon points="221.63 140.45 221.63 135.18 211.01 128.31 218.51 135.18 110.51 135.18 118 128.31 107.37 135.18 107.37 140.45 118 140.45 118 172.14 115.36 172.14 115.36 175.11 111.43 175.11 111.43 178.05 217.58 178.05 217.58 175.11 213.64 175.11 213.64 172.14 211.01 172.14 211.01 140.45"/></svg><svg xmlns:xlink="http://www.w3.org/1999/xlink" id="favorite-home-symbol-of-real-estate-svgrepo-com" style="enable-background:new 0 0 675.857 675.858" xml:space="preserve" height="300" viewBox="0 0 675.857 675.858" width="300" version="1.1" y="618" x="0px">	<path d="m675.85 388.81c0.014-0.721 0.01-1.44-0.01-2.16 0.084-10.704-3.602-21.499-11.08-32.634-0.854-1.27-1.686-2.549-2.492-3.836-7.784-13.96-12.798-28.542-13.427-45.662-1.08-27.539-13.5-49.23-42.39-58.14-0.634-0.192-1.244-0.417-1.866-0.627-10.831-5.807-21.077-12.313-30.588-19.922-4.56-4.436-8.865-9.194-13.086-14.01-4.491-5.173-9.218-9.321-14.269-12.441-9.685-7.664-21.959-10.02-35.692-6.55-12.431 3.167-25.108 4.828-37.749 4.925-12.641-0.097-25.318-1.758-37.749-4.925-13.733-3.47-26.009-1.114-35.692 6.55-5.051 3.12-9.776 7.268-14.269 12.441-4.221 4.816-8.526 9.575-13.086 14.01-9.511 7.61-19.757 14.116-30.588 19.922-0.622 0.21-1.232 0.435-1.866 0.627-28.89 8.91-41.31 30.601-42.39 58.14-0.629 17.119-5.643 31.701-13.426 45.662-0.808 1.287-1.64 2.566-2.493 3.836-7.479 11.135-11.165 21.93-11.081 32.634-0.019 0.72-0.022 1.439-0.009 2.16-0.01 0.554-0.012 1.106-0.002 1.661-0.115 10.738 3.571 21.495 11.079 32.759 0.627 0.933 1.239 1.873 1.843 2.814 8.112 14.272 13.365 29.146 14.009 46.684 1.08 27.54 13.5 49.229 42.391 58.141 0.772 0.234 1.521 0.504 2.274 0.765 10.359 5.569 20.191 11.771 29.347 18.983 4.87 4.66 9.442 9.704 13.919 14.812 4.677 5.389 9.611 9.655 14.899 12.815 9.608 7.368 21.708 9.59 35.218 6.176 12.405-3.159 25.057-4.82 37.671-4.925 12.614 0.104 25.266 1.766 37.671 4.925 13.51 3.414 25.608 1.192 35.218-6.176 5.288-3.16 10.224-7.428 14.899-12.815 4.477-5.106 9.049-10.15 13.919-14.812 9.154-7.212 18.986-13.414 29.347-18.983 0.754-0.261 1.502-0.529 2.274-0.765 28.891-8.91 41.311-30.601 42.391-58.141 0.645-17.536 5.896-32.41 14.009-46.684 0.604-0.941 1.216-1.883 1.844-2.814 7.508-11.264 11.193-22.021 11.078-32.759 0.03-0.55 0.03-1.1 0.02-1.66zm-201.97 157.27c-0.228 0.006-0.454 0.003-0.682 0.007-0.228-0.004-0.454-0.001-0.682-0.007-17.501-0.073-34.558-2.96-50.619-8.253-61.69-21.518-107.63-82.142-108.13-148.62-0.006-0.728 0.005-1.451 0.008-2.176 0.95-65.966 46.569-125.99 107.79-147.5 16.164-5.366 33.34-8.291 50.966-8.365 0.224-0.005 0.445-0.002 0.668-0.007 0.223 0.004 0.444 0.001 0.668 0.007 17.626 0.074 34.802 2.999 50.966 8.365 61.218 21.505 106.84 81.534 107.79 147.5 0.004 0.725 0.016 1.448 0.009 2.176-0.498 66.477-46.438 127.1-108.13 148.62-16.08 5.3-33.14 8.19-50.64 8.26z"/>	<rect y="523.94" x="258.19" height="25.2" width="25.2"/>	<path d="m269.55 303.48c0.778-19.841 6.068-36.996 15.726-51.062 10.833-15.778 26.523-26.923 46.639-33.126l0.116-0.036c12.038-3.656 21.808-13.97 32.421-26.076 5.662-6.512 11.747-11.937 18.22-16.281 0.777-1.073 1.561-2.152 2.349-3.239-26.37-28.26-52.021-55.53-78.48-83.79-20.07 21.6-133.65 153.18-154.53 168.84v-36.72h-74.26v120.87c-0.72 0.988-59.4 70.2-77.76 93.6h75.15v135.63c3.42-3.06 6.48-5.76 9.18-8.817 49.95-55.17 101.25-109.08 148.77-166.32 3.479-4.175 6.623-8.634 9.532-13.289 0.793-14.14 5.52-28.322 14.103-42.258 8.53-13.75 12.35-25.07 12.82-37.91z"/>	<path d="m258.36 438.96c-3.374-5.061-6.212-10.158-8.514-15.278l-132.19 148.41h53.329l98.307-109.84c-2.25-8.017-5.897-15.815-10.866-23.207l-0.07-0.08z"/>	<path d="m257.92 487.4v25.2h20.117c-3.441-7.766-5.491-16.228-6.022-25.2h-14.1z"/>	<path d="m303.19 549.14h10.917c-3.884-1.938-7.524-4.104-10.917-6.474v6.47z"/>	<path d="m570.58 375.71c0-0.63-0.045-1.165-0.09-1.8-0.013-0.18 0.005-0.45 0-0.63-0.361-13.335-5.587-26.542-15.03-34.38-8.016-6.653-16.803-10.341-25.83-12.06-9.35-1.78-18.135-1.697-26.818 3.42-0.451 0.266-26.641 17.371-29.608 19.351-2.97-1.98-29.134-19.026-29.609-19.351-8.323-5.683-17.369-5.253-26.817-3.42-9.022 1.75-17.743 5.385-25.83 12.06-9.465 7.812-14.669 21.045-15.03 34.38-0.005 0.18 0 0.45 0 0.63 0 0.63-0.09 1.17-0.09 1.8 0 0.271 0.001 0.63 0 0.9-0.038 8.817 1.621 17.64 4.95 24.75 11.883 25.379 30.697 45.259 51.21 63.54 11.705 10.433 41.22 32.76 41.22 32.76s29.607-22.414 41.22-32.76c20.517-18.278 39.327-38.161 51.21-63.54 3.329-7.11 5.044-15.933 4.95-24.75v-0.9z"/></svg><svg xmlns:xlink="http://www.w3.org/1999/xlink" id="for-sale-post-svgrepo-com" style="enable-background:new 0 0 285 285" xml:space="preserve" viewBox="0 0 285 285" version="1.1" y="918" x="0px" width="32" height="32">		<path d="m272.05 32.385h-259.1c-7.152 0-12.95 5.804-12.95 12.957v194.32c0 7.153 5.798 12.957 12.954 12.957 7.153 0 12.955-5.804 12.955-12.957v-181.36h68.015v6.541c-6.349 1.469-11.433 4.976-13.888 9.654h-34.695c-3.578 0-6.476 2.898-6.476 6.476v136.02c0 3.575 2.898 6.476 6.476 6.476h207.28c3.575 0 6.476-2.9 6.476-6.476v-136.02c0-3.578-2.901-6.476-6.476-6.476h-34.697c-2.453-4.679-7.537-8.186-13.889-9.654v-6.541h68.016c7.156 0 12.954-5.802 12.954-12.955s-5.8-12.959-12.95-12.959zm-25.92 178.12h-194.31v-123.06h194.31v123.06zm-55.05-145.67c-6.349 1.472-11.433 4.976-13.879 9.654h-56.44c-2.449-4.679-7.533-8.183-13.882-9.654v-6.541h84.198v6.541z"/>		<path d="m79.229 172.4c-11.829 0-10.193-9.262-16.535-9.262-2.848 0-4.917 1.992-4.917 4.843 0 5.56 6.63 12.973 21.452 12.973 14.104 0 21.094-6.915 21.094-16.18 0-5.984-2.709-12.326-13.4-14.751l-9.76-2.208c-3.708-0.854-7.984-1.995-7.984-5.554 0-3.569 2.993-6.064 8.408-6.064 10.904 0 9.905 7.626 15.32 7.626 2.854 0 5.347-1.704 5.347-4.626 0-6.843-10.762-11.977-19.881-11.977-9.905 0-20.454 4.277-20.454 15.679 0 5.489 1.927 11.334 12.546 14.04l13.18 3.349c3.989 0.996 4.988 3.278 4.988 5.347 0.003 3.42-3.346 6.76-9.401 6.76z"/>		<path d="m109.51 180.67c2.78 0 4.416-0.931 5.205-3.207l3.064-8.554h18.812l2.99 8.554c0.856 2.276 2.712 3.207 5.276 3.207 2.993 0 5.489-2.282 5.489-5.13 0-1.287-0.717-3.349-1.144-4.494l-14.111-39.265c-1.283-3.634-3.634-4.271-6.271-4.271h-2.78c-2.848 0-4.7 0.924-5.699 3.559l-15.106 39.976c-0.427 1.145-1.138 3.207-1.138 4.494-0.01 3.14 2.2 5.13 5.41 5.13zm17.74-40.47h0.146l6.624 20.596h-13.684l6.91-20.6z"/>		<path d="m163.23 179.74h24.37c3.349 0 6.055-1.707 6.055-4.914s-2.706-4.917-6.055-4.917h-19.525v-36.556c0-3.494-2.276-5.841-5.842-5.841s-5.845 2.347-5.845 5.841v39.549c-0.01 5.21 2.7 6.84 6.83 6.84z"/>		<path d="m207.04 179.74h28.005c3.42 0 5.913-0.993 5.913-4.7 0-3.708-2.493-4.704-5.913-4.704h-23.159v-12.401h19.81c3.065 0 5.489-0.854 5.489-4.49 0-3.634-2.424-4.487-5.489-4.487h-19.81v-11.117h22.59c3.42 0 5.916-0.996 5.916-4.704 0-3.705-2.495-4.701-5.916-4.701h-27.437c-4.131 0-6.84 1.636-6.84 6.837v37.629c0.01 5.2 2.72 6.83 6.85 6.83z"/></svg><svg xmlns:xlink="http://www.w3.org/1999/xlink" id="girl-with-two-ponytails-svgrepo-com" style="enable-background:new 0 0 487.291 487.291" xml:space="preserve" height="300" viewBox="0 0 487.291 487.291" width="300" version="1.1" y="950" x="0px">	<g id="girl-with-two-ponytails-svgrepo-com-Layer_2_34_">			<path d="m368.92 333.91c-17.429-6.286-47.769-24.4-52.966-27.198-1.348-0.782-2.907-1.239-4.58-1.239-3.646 0-6.784 2.144-8.247 5.236-14.37 24.059-41.011 94.018-59.602 95.312-18.591-1.295-45.231-71.254-59.603-95.312-1.462-3.094-4.601-5.236-8.248-5.236-1.671 0-3.231 0.457-4.579 1.239-5.197 2.798-35.536 20.912-52.965 27.198-58.503 21.095-84.814 42.607-84.814 57.277v96.102h420.42v-96.102c0.01-14.67-26.31-36.18-84.81-57.28z"/>			<path d="m456.89 254.98c-26.866-61.374 16.789-102.45-92.743-137.97 2.173-56.566-51.22-117-115.8-117-0.549 0-1.092 0.031-1.629 0.037-0.152 0-0.303-0.006-0.457-0.01v-0.01c-0.24 0-0.482-0.018-0.726-0.018-0.077 0-0.149 0.004-0.225 0.004s-0.14-0.013-0.22-0.013c-0.199 0-0.397 0.01-0.597 0.012-0.19-0.002-0.39-0.012-0.59-0.012-0.076 0-0.149 0.004-0.225 0.004h-0.016s-0.011 0-0.016 0c-0.075 0-0.148-0.004-0.225-0.004-0.198 0-0.398 0.01-0.597 0.012-0.19-0.002-0.39-0.012-0.59-0.012-0.077 0-0.15 0.004-0.226 0.004-0.074 0-0.147-0.004-0.225-0.004-0.242 0-0.484 0.018-0.726 0.018v0.01c-0.153 0.004-0.304 0.01-0.456 0.01-0.538-0.006-1.08-0.037-1.629-0.037-64.581 0-117.97 60.436-115.8 117-109.53 35.525-65.877 76.6-92.743 137.97-0.694 1.469-1.095 3.104-1.095 4.836 0 6.26 5.074 11.334 11.333 11.334 1.24 0 2.431-0.207 3.548-0.574 81.648-21.502 79.571-58.436 93.85-82.234-0.313 7.037-0.227 14.424 0.338 22.213 0 39.178 49.795 81.938 103.46 81.938 0.328 0 0.646-0.028 0.972-0.028 0.28 0 0.557 0.021 0.837 0.024 0.28-0.006 0.557-0.024 0.837-0.024 0.325 0 0.645 0.028 0.973 0.028 53.659 0 103.45-42.76 103.45-81.938 0.564-7.789 0.65-15.176 0.338-22.213 14.278 23.799 12.201 60.732 93.851 82.234 1.117 0.367 2.308 0.574 3.548 0.574 6.259 0 11.333-5.074 11.333-11.334 0.01-1.73-0.39-3.37-1.08-4.83z"/>	</g></svg><svg xmlns:xlink="http://www.w3.org/1999/xlink" id="global-positioning-svgrepo-com" style="enable-background:new 0 0 440.146 440.146" xml:space="preserve" viewBox="0 0 440.146 440.146" version="1.1" y="1250" x="0px" width="32" height="32"><g fill="#010002">	<polygon points="0 141.86 0 191.48 105.86 191.48 151.01 141.86"/>	<path d="m0 332.25v88.154h392.33l-66.272-88.154h-116.8l-5.048 18.127h-104.79l51.397-28.45-51.389-28.45h61.574l23.882-85.74h-71.848l-0.707 0.772-0.854-0.772h-111.47v108.26h58.184l2.837 5.934-4.934 10.323h-56.087zm70.02-10.32l-2.837-5.934-20.175-42.25 51.438 28.483 35.587 19.704-35.587 19.696-51.446 28.474 18.086-37.855 4.937-10.31z"/>	<path d="m440.14 125.6v-42.546h-60.509c-2.162-35.27-31.458-63.313-67.264-63.313s-65.102 28.052-67.264 63.313h-245.11v42.545h256.81l9.998 16.257h-93.82l-45.154 49.625h61.582l4.706-16.891h89.894c0.593-0.593 1.309-1.049 1.935-1.601l0.984 1.601 25.442 41.374 26.418-42.976c8.372 7.364 13.762 18.029 13.762 30.051 0 22.191-17.989 40.18-40.18 40.18-11.071 0-21.094-4.487-28.361-11.73h-46.674l-23.54 84.505h226.35v-174.12h-82.221l9.99-16.257h72.21zm-86.85 0l-0.74 1.138h0.35l-9.291 15.119-15.038 24.475-16.2 26.361-11.128-18.094-5.08-8.267-15.046-24.475-9.291-15.119h0.431l-0.74-1.138-5.406-8.291c-5.893-9.039-9.006-19.452-9.006-30.1 0-1.406 0.106-2.78 0.211-4.154 2.138-28.539 25.995-51.121 55.071-51.121s52.933 22.581 55.071 51.121c0.106 1.374 0.211 2.756 0.211 4.154 0 10.657-3.121 21.061-9.006 30.1l-5.35 8.29z"/>	<polygon points="440.14 420.41 440.14 332.25 346.38 332.25 412.66 420.41"/>	<path d="m312.37 61.204c-13.615 0-24.955 9.291-28.32 21.85-0.65 2.43-1.105 4.942-1.105 7.576 0 16.249 13.176 29.425 29.425 29.425s29.425-13.176 29.425-29.425c0-2.634-0.455-5.145-1.105-7.576-3.35-12.564-14.7-21.855-28.31-21.855z"/></g></svg><svg xmlns:xlink="http://www.w3.org/1999/xlink" id="group-of-people-svgrepo-com" style="enable-background:new 0 0 28.832 28.832" xml:space="preserve" viewBox="0 0 28.832 28.832" version="1.1" y="1282" x="0px" width="32" height="32">	<path d="m11.98 5.373c0-1.584 1.284-2.869 2.869-2.869s2.869 1.284 2.869 2.869-1.284 2.869-2.869 2.869-2.869-1.285-2.869-2.869zm3.736 10.248c0.616-0.658 1.479-1.075 2.575-1.245 0.249-0.038 0.513-0.061 0.786-0.077 0.088-0.003 0.171-0.012 0.259-0.012h1.707c-1.253-0.521-2.141-1.761-2.141-3.203 0-0.575 0.143-1.12 0.394-1.596-0.89-0.325-1.711-0.32-1.711-0.32h-5.753c-0.643 0.015-1.183 0.096-1.636 0.23 0.281 0.5 0.442 1.076 0.442 1.686 0 1.442-0.887 2.681-2.142 3.203h1.412c0.017-0.002 0.033-0.002 0.051-0.002 0.1 0 0.209 0.004 0.319 0.012 0.235 0.017 0.492 0.053 0.758 0.107 1.444 0.303 3.186 1.253 3.379 3.527l0.002 0.051v1.774h0.362l0.002-1.774c-0.002-0.025-0.052-1.307 0.935-2.361zm-8.723-1.638c1.582 0 2.869-1.287 2.869-2.871s-1.287-2.869-2.869-2.869c-1.584 0-2.869 1.285-2.869 2.869 0 1.583 1.286 2.871 2.869 2.871zm2.735 0.925h-5.752c-4.118 0.076-3.975 3.103-3.975 3.103l-0.001 7.056h0.004c0 0.017-0.003 0.035-0.003 0.05 0 0.67 0.545 1.211 1.213 1.211 0.669 0 1.209-0.541 1.209-1.211 0-0.016-0.002-0.033-0.005-0.05h0.005v-6.532h0.758l-0.006 6.958 7.266 0.006-0.006-6.996h0.786v6.563h0.004v0.01c0 0.669 0.541 1.211 1.207 1.211 0.669 0 1.211-0.542 1.211-1.211v-0.01-7.056c-0.265-3.149-3.915-3.102-3.915-3.102zm12.457-0.926c1.585 0 2.87-1.285 2.87-2.87s-1.285-2.87-2.87-2.87-2.87 1.285-2.87 2.87c0.001 1.585 1.285 2.87 2.87 2.87zm2.736 0.926h-5.754c-4.119 0.076-3.973 3.103-3.973 3.103l-0.002 7.056h0.005c0 0.017-0.003 0.035-0.003 0.05 0 0.67 0.544 1.211 1.212 1.211 0.669 0 1.208-0.541 1.208-1.211 0-0.016-0.003-0.033-0.004-0.05h0.004v-6.532h0.76l-0.009 6.958 7.266 0.006-0.006-6.996h0.786v6.563h0.002v0.01c0 0.669 0.542 1.211 1.21 1.211 0.667 0 1.209-0.542 1.209-1.211v-0.01-7.056c-0.262-3.149-3.911-3.102-3.911-3.102z" fill="#010002"/></svg><svg xmlns:xlink="http://www.w3.org/1999/xlink" id="house-scale-svgrepo-com" style="enable-background:new 0 0 494.747 494.747" xml:space="preserve" viewBox="0 0 494.747 494.747" version="1.1" y="1314" x="0px" width="32" height="32"><g fill="#010002">	<path d="m484.84 240.95l-190.03-140.14c-8.657-6.381-20.451-6.34-29.068 0.089l-187.65 140.14c-10.795 8.055-13.006 23.337-4.95 34.124 8.064 10.787 23.337 13.006 34.132 4.942l25.158-18.785v189.28c0 13.469 10.917 24.386 24.386 24.386h247.04c13.469 0 24.386-10.917 24.386-24.386v-190.8l27.645 20.386c4.357 3.219 9.429 4.763 14.453 4.763 7.478 0 14.867-3.43 19.647-9.917 7.98-10.83 5.67-26.09-5.16-34.08zm-105.37-8.89v194.15h-198.27v-194.15c0-2.243-0.398-4.381-0.967-6.446l100.19-74.824 100.28 73.954c-0.73 2.33-1.23 4.76-1.23 7.32z"/>	<path d="m446.19 89.911c6.739 0 12.193-5.462 12.193-12.193v-45.764c0-6.73-5.454-12.193-12.193-12.193h-341.14c-6.739 0-12.193 5.462-12.193 12.193v45.764c0 6.73 5.454 12.193 12.193 12.193s12.193-5.462 12.193-12.193v-33.571h31.433v14.753c0 4.495 3.642 8.129 8.129 8.129s8.129-3.633 8.129-8.129v-14.753h30.783v14.753c0 4.495 3.642 8.129 8.129 8.129s8.129-3.633 8.129-8.129v-14.753h30.783v14.753c0 4.495 3.642 8.129 8.129 8.129s8.129-3.633 8.129-8.129v-14.753h30.79v14.753c0 4.495 3.642 8.129 8.129 8.129s8.129-3.633 8.129-8.129v-14.753h30.791v14.753c0 4.495 3.642 8.129 8.129 8.129s8.129-3.633 8.129-8.129v-14.753h30.783v14.753c0 4.495 3.642 8.129 8.129 8.129s8.129-3.633 8.129-8.129v-14.753h33.856v33.571c-0.01 6.731 5.45 12.193 12.18 12.193z"/>	<path d="m70.15 460.04c0-6.73-5.454-12.193-12.193-12.193h-33.571v-31.433h14.753c4.487 0 8.129-3.633 8.129-8.129s-3.642-8.129-8.129-8.129h-14.753v-30.783h14.753c4.487 0 8.129-3.633 8.129-8.129 0-4.495-3.642-8.129-8.129-8.129h-14.753v-30.783h14.753c4.487 0 8.129-3.633 8.129-8.129s-3.642-8.129-8.129-8.129h-14.753v-30.783h14.753c4.487 0 8.129-3.633 8.129-8.129 0-4.495-3.642-8.129-8.129-8.129h-14.753v-30.783h14.753c4.487 0 8.129-3.633 8.129-8.129s-3.642-8.129-8.129-8.129h-14.753v-30.783h14.753c4.487 0 8.129-3.633 8.129-8.129 0-4.495-3.642-8.129-8.129-8.129h-14.753v-33.856h33.571c6.739 0 12.193-5.462 12.193-12.193s-5.454-12.193-12.193-12.193h-45.764c-6.739-0.01-12.193 5.46-12.193 12.19v341.14c0 6.73 5.454 12.193 12.193 12.193h45.764c6.738-0.01 12.193-5.47 12.193-12.2z"/></g></svg><svg xmlns:xlink="http://www.w3.org/1999/xlink" id="justice-hammer-svgrepo-com" style="enable-background:new 0 0 476.243 476.243" xml:space="preserve" viewBox="0 0 476.243 476.243" version="1.1" y="1346" x="0px" width="32" height="32"><g fill="#010002">	<path d="m69.684 384.44l116.31-116.31c11.096-11.096 14.282-26.938 9.933-40.952l36.01-36.01c10.762 8.763 21.923 15.769 32.896 20.882 0.837-2.495 2.13-4.788 4.016-6.674l60.306-60.306c1.87-1.87 4.178-3.138 6.706-3.942-7.381-15.867-18.696-32.173-33.555-47.032-15.152-15.152-31.807-26.654-47.975-34.018-0.845 2.341-2.065 4.511-3.853 6.308l-60.306 60.306c-1.78 1.78-3.902 3.081-6.267 3.95 5.145 11.266 12.331 22.752 21.338 33.823l-36.01 36.01c-14.014-4.349-29.856-1.162-40.952 9.933l-116.34 116.32c-15.94 15.94-15.94 41.781 0 57.721 15.945 15.94 41.794 15.94 57.734 0z"/>	<path d="m274.59 211.13c-1.122 1.122-1.837 2.544-2.276 4.121-1.496 5.414 0.91 12.9 6.576 18.566 4.438 4.43 10.128 7.08 15.233 7.08 2.138 0 5.162-0.48 7.454-2.772l18.647-18.647 23.012-23.012 18.647-18.647c2.284-2.284 3.211-5.779 2.593-9.836-0.683-4.519-3.138-9.08-6.901-12.843-4.438-4.43-10.128-7.08-15.225-7.08-0.984 0-2.162 0.13-3.365 0.463-1.414 0.39-2.861 1.073-4.097 2.317l-60.29 60.29z"/>	<path d="m176.95 123.73c1.105 0 2.455-0.146 3.82-0.593 1.26-0.415 2.536-1.081 3.642-2.187l60.306-60.306c1.008-1.008 1.658-2.284 2.113-3.666 1.772-5.438-0.585-13.185-6.422-19.013-4.438-4.43-10.128-7.08-15.225-7.08-2.138 0-5.162 0.48-7.454 2.772l-20.549 20.549-19.216 19.208-20.549 20.549c-4.975 4.983-3.008 15.371 4.308 22.687 4.44 4.43 10.13 7.08 15.23 7.08z"/>	<path d="m300.44 387.31c9.892-0.975 20.5-1.252 31.579-1.252 4.723 0 9.559 0.033 14.485 0.073 10.209 0.081 21.004 0.081 31.214 0 4.926-0.041 9.762-0.073 14.485-0.073 11.079 0 21.687 0.276 31.579 1.252v-23.589h-123.34v23.59z"/>	<path d="m392.2 394.19c-4.698 0-9.51 0.033-14.42 0.073-10.258 0.073-21.086 0.073-31.336 0-4.91-0.041-9.722-0.073-14.42-0.073-11.502 0-22.053 0.228-31.579 1.13-31.417 2.967-51.129 13.567-52.47 50.04h228.27c-1.341-36.473-21.053-47.064-52.47-50.039-9.51-0.9-20.07-1.13-31.57-1.13z"/></g></svg><svg xmlns:xlink="http://www.w3.org/1999/xlink" id="people-connected-svgrepo-com" style="enable-background:new 0 0 30.498 30.498" xml:space="preserve" height="30" viewBox="0 0 30.498 30.498" width="30" version="1.1" y="1378" x="0px">		<circle cy="3.64" cx="15.706" r="3.62"/>		<polygon points="19.332 7.803 18.439 7.803 17.104 7.803 15.769 9.401 14.389 7.803 12.978 7.803 11.973 7.803 11.196 7.803 10.937 14.206 20.204 14.206 20.021 7.803"/>		<circle cy="19.914" cx="4.769" r="3.619"/>		<polygon points="8.396 24.078 7.503 24.078 6.167 24.078 4.832 25.677 3.453 24.078 2.042 24.078 1.035 24.078 0.258 24.078 0 30.479 9.268 30.479 9.084 24.078"/>		<circle cy="19.768" cx="25.999" r="3.619"/>		<polygon points="30.314 23.932 29.625 23.932 28.732 23.932 27.396 23.932 26.062 25.53 24.682 23.932 23.271 23.932 22.266 23.932 21.488 23.932 21.23 30.334 30.498 30.334"/>		<rect y="26.014" x="10.471" height=".645" width="1.346"/>		<rect y="26.014" x="18.544" height=".645" width="1.345"/>		<rect y="26.014" x="15.853" height=".645" width="1.346"/>		<rect y="26.014" x="13.162" height=".645" width="1.345"/>		<rect y="8.076" x="4.312" height="1.293" width=".645"/>		<rect y="5.491" x="4.312" height="1.293" width=".645"/>		<rect y="10.662" x="4.312" height="1.293" width=".645"/>		<rect y="13.248" x="4.312" height="1.293" width=".645"/>		<polygon points="5.091 3.392 5.414 3.392 5.414 2.748 4.447 2.748 4.447 3.713 5.091 3.713"/>		<rect y="2.748" x="22.904" height=".645" width="1.346"/>		<rect y="2.748" x="20.213" height=".645" width="1.346"/>		<rect y="2.748" x="6.759" height=".645" width="1.346"/>		<rect y="2.748" x="9.45" height=".645" width="1.345"/>		<polygon points="25.917 3.713 26.562 3.713 26.562 2.748 25.596 2.748 25.596 3.392 25.917 3.392"/>		<rect y="10.179" x="25.917" height="1.292" width=".646"/>		<rect y="5.006" x="25.917" height="1.293" width=".646"/>		<rect y="7.593" x="25.917" height="1.293" width=".646"/>		<rect y="12.764" x="25.917" height="1.293" width=".646"/></svg><svg xmlns:xlink="http://www.w3.org/1999/xlink" id="people-trading-svgrepo-com" style="enable-background:new 0 0 490.04 490.04" xml:space="preserve" viewBox="0 0 490.04 490.04" version="1.1" y="1408" x="0px" width="32" height="32">	<path d="m96.701 148.78c-2.826-5.265-6.854-9.759-11.663-13.326-5.681-4.215-12.458-7.089-20.002-7.838-0.064-0.006-0.122-0.031-0.187-0.037-1.885-0.194-3.715-0.071-5.553-0.004 10.867 3.044 20.445 10.424 25.667 21.414l15.442 32.474 10.362 21.79 31.86-3.004 6.982-11.334-14.651 3.842-38.249-43.97z"/>	<path d="m222.55 175.65l-24.998-15.404c-1.526-0.94-3.272-1.43-5.044-1.43-0.735 0-1.477 0.087-2.212 0.26-2.474 0.593-4.615 2.142-5.95 4.307l-22.897 37.169c16.68 3.655 29.927 17.637 31.622 35.573 0.184 1.945 0.054 3.836-0.036 5.733l32.653-53.002c2.79-4.52 1.38-10.43-3.13-13.21z"/>	<path d="m78.328 316.45c6.371-6.415 10.739-14.896 11.654-24.602l0.51-5.403-0.305 0.028c-1.28 0.127-2.553 0.182-3.817 0.182-15.491 0-29.78-8.891-36.529-23.085l-32.1-67.494-8.325 88.168c-0.936 9.913 1.937 19.221 7.212 26.798l26.25 76.933-9.5 69.92c-2.11 15.506 8.749 29.779 24.247 31.881 1.296 0.182 2.584 0.261 3.857 0.261 13.949 0 26.096-10.306 28.024-24.508l10.401-76.551c0.593-4.363 0.166-8.804-1.256-12.961l-20.323-59.58z"/>	<path d="m99.016 117.45c26.76-6.971 42.804-34.324 35.832-61.085-6.969-26.76-34.314-42.804-61.075-35.832-26.76 6.97-42.804 34.324-35.834 61.084 6.969 26.753 34.316 42.803 61.075 35.833z"/>	<path d="m150.51 215.76l-49.49 4.671-30.672-64.49c-5.762-12.116-20.272-17.261-32.348-11.5-12.116 5.754-17.261 20.24-11.499 32.348l37.967 79.83c4.046 8.52 12.621 13.854 21.916 13.854 0.759 0 1.525-0.031 2.292-0.11l66.403-6.268c13.349-1.256 23.148-13.104 21.884-26.452-1.26-13.35-13.2-23.28-26.45-21.88z"/>	<path d="m480.62 284.25l-11.349-120.19c-2.103-22.255-21.995-38.75-44.084-36.481-15.57 1.471-28.083 11.66-33.567 25.222l3.551-3.243c16.502-15.056 42.101-13.918 57.164 2.584 15.071 16.502 13.918 42.093-2.585 57.164l-52.925 48.343 3.229 34.207c0.915 9.706 5.284 18.187 11.655 24.602l-20.324 59.567c-1.423 4.157-1.85 8.599-1.257 12.961l10.401 76.551c1.928 14.202 14.076 24.508 28.025 24.508 1.272 0 2.561-0.079 3.856-0.261 15.499-2.102 26.357-16.375 24.248-31.881l-9.5-69.92 26.251-76.933c5.29-7.58 8.16-16.89 7.22-26.8z"/>	<path d="m391.02 117.45c26.76 6.97 54.106-9.074 61.075-35.834 6.972-26.76-9.072-54.114-35.831-61.084-26.763-6.972-54.106 9.072-61.078 35.832-6.97 26.759 9.07 54.116 35.83 61.086z"/>	<path d="m440.39 163.05c-9.042-9.887-24.413-10.598-34.3-1.549l-51.829 47.341h-65.55c-13.412 0-24.278 10.866-24.278 24.278s10.867 24.279 24.278 24.279h74.97c6.062 0 11.902-2.268 16.375-6.354l58.784-53.695c9.9-9.05 10.59-24.4 1.55-34.31z"/>	<path d="m283.48 89.441c0-15.223-8.118-24.509-28.248-31.612-14.366-5.415-20.287-8.964-20.287-14.544 0-4.742 3.549-9.467 14.551-9.467 6.139 0 11.166 0.988 15.205 2.205 2.434 0.743 5.074 0.441 7.287-0.807 2.213-1.25 3.824-3.35 4.458-5.816l0.159-0.608c1.303-5.09-1.732-10.282-6.807-11.649-4.25-1.146-9.349-1.985-15.577-2.262v-6.599c0-4.575-3.707-8.282-8.283-8.282-4.583 0-8.29 3.707-8.29 8.282v7.777c-18.092 3.548-28.57 15.221-28.57 30.096 0 16.398 12.337 24.855 30.428 30.949 12.519 4.22 17.932 8.282 17.932 14.7 0 6.764-6.598 10.496-16.234 10.496-6.843 0-13.291-1.383-18.903-3.359-2.404-0.854-5.058-0.641-7.303 0.561-2.253 1.201-3.896 3.288-4.529 5.753l-0.157 0.625c-1.392 5.437 1.722 11.009 7.082 12.685 5.697 1.778 12.494 3.035 19.409 3.342v7.786c0 4.576 3.706 8.283 8.282 8.283 4.584 0 8.291-3.707 8.291-8.283v-8.97c19.44-3.37 30.1-16.23 30.1-31.279z"/></svg><svg xmlns:xlink="http://www.w3.org/1999/xlink" id="piggy-bank-svgrepo-com" style="enable-background:new 0 0 459.978 459.978" xml:space="preserve" viewBox="0 0 459.978 459.978" version="1.1" y="1440" x="0px" width="32" height="32">	<path d="m98.993 219.58c-5.523 0-10 4.478-10 10v14.999c0 5.522 4.477 10 10 10s10-4.478 10-10v-14.999c0-5.52-4.47-10-9.997-10z"/>	<path d="m452.7 222.96c-5.31-1.508-10.842 1.58-12.348 6.895-1.944 6.86-6.565 12.449-12.517 15.793-4.148-34.584-24.321-66.44-57.871-90.812-18.453-13.405-39.929-23.75-63.264-30.699 3.351-8.875 5.088-18.332 5.088-28.044 0-43.837-35.664-79.5-79.5-79.5s-79.5 35.663-79.5 79.5c0 10.147 1.893 19.995 5.533 29.196-11.075 3.513-21.733 7.819-31.871 12.884-9.836-6.315-21.438-9.837-33.642-9.837h-41.062c-6.067 0-11.537 3.654-13.858 9.26-2.321 5.605-1.038 12.057 3.252 16.347l28.251 28.251c-11.891 14.309-20.382 30.097-25.037 46.63h-29.354c-8.284 0-15 6.716-15 15v47.31c0 17.392 8.8 33.285 23.544 42.517 14.999 9.383 38.094 22.737 66.066 35.317v59.416c0 8.284 6.716 15 15 15h52.88c7.14 0 13.291-5.033 14.704-12.031l6.647-32.929c19.306 3.872 37.936 5.83 55.559 5.83 15.814 0 31.43-1.403 46.606-4.181l7.366 31.705c1.579 6.796 7.634 11.605 14.611 11.605h51.857c8.284 0 15-6.716 15-15v-65.041c34.939-25.353 55.833-59.771 58.508-96.293 14.832-4.508 26.876-16.316 31.248-31.741 1.49-5.31-1.59-10.84-6.91-12.35zm-269.91-126.87c0-27.294 22.206-49.5 49.5-49.5s49.5 22.206 49.5 49.5c0 7.444-1.635 14.641-4.768 21.214-13.839-2.293-28.114-3.474-42.622-3.474-15.889 0-31.472 1.399-46.523 4.137-3.34-6.76-5.09-14.18-5.09-21.886zm163.79 246.87c-4.21 2.775-6.744 7.48-6.744 12.523v57.899h-24.942l-8.007-34.465c-0.909-3.912-3.349-7.296-6.773-9.395-3.425-2.099-7.547-2.737-11.446-1.771-17.406 4.313-35.666 6.5-54.272 6.5-19.801 0-41.205-2.819-63.619-8.379-3.972-0.986-8.174-0.306-11.633 1.884-3.458 2.188-5.872 5.695-6.682 9.706l-7.251 35.919h-25.61v-54.22c0-6.01-3.587-11.439-9.115-13.797-30.284-12.919-55.347-27.333-71.036-37.147-5.923-3.709-9.46-10.096-9.46-17.086v-32.31h26.38c7.367 0 13.644-5.351 14.811-12.625 2.395-14.933 9.088-29.467 19.529-42.675l0.666 0.666c2.929 2.929 6.768 4.394 10.606 4.394s7.678-1.465 10.606-4.394c5.858-5.857 5.858-15.355 0-21.213l-24.639-24.64h4.85c12.131 0 23.124 6.706 28.689 17.501 3.796 7.362 12.843 10.254 20.206 6.458s10.255-12.843 6.459-20.206c-0.134-0.26-0.277-0.513-0.414-0.771 25.955-11.465 55.558-17.485 86.652-17.485 44.737 0 86.621 12.527 117.93 35.274 29.867 21.697 46.316 50.085 46.316 79.936-0.02 31.53-19 62.12-52.09 83.93z"/></svg><svg xmlns:xlink="http://www.w3.org/1999/xlink" id="real-estate-agent-svgrepo-com" xml:space="preserve" height="300" viewBox="0 0 300 300" width="300" version="1.1" y="1472" x="0px" enable-background="new 0 0 300 300">	<path d="m287.99 131.75l-129.54-111.4c-4.861-4.175-12.035-4.175-16.896 0l-129.54 111.4c-5.431 4.667-6.036 12.846-1.373 18.27 4.663 5.427 12.853 6.03 18.265 1.376l121.1-104.14 121.1 104.14c2.443 2.103 5.443 3.129 8.437 3.129 3.644 0 7.268-1.528 9.828-4.506 4.66-5.42 4.05-13.6-1.38-18.27z"/>	<polygon points="113.64 282.78 113.64 251.07 106.59 282.78"/>	<polygon points="186.36 282.78 193.41 282.78 186.36 251.07"/>	<path d="m154.23 65.417c-2.425-2.094-6.036-2.094-8.461 0l-97.623 84.208c-1.423 1.228-2.245 3.018-2.245 4.901v121.78c0 3.578 2.9 6.479 6.481 6.479h27.597l15.901-71.111c0.785-3.42 2.852-6.522 6.147-8.399 0.811-0.461 19.05-10.505 42.992-11.819l3.229 6.479h0.111l-8.752 68.108 9.587 16.743h1.607l9.587-16.743-8.752-68.108h0.081l3.247-6.479c23.93 1.314 42.193 11.358 43.004 11.819 3.296 1.877 5.362 4.979 6.147 8.399l15.901 71.111h27.598c3.581 0 6.481-2.9 6.481-6.479v-121.77c0-1.883-0.822-3.674-2.245-4.901l-97.63-84.213zm-4.23 123.11c-18.134 0-32.849-21.026-32.849-39.16s14.715-32.835 32.849-32.835c18.122 0 32.83 14.701 32.83 32.835s-14.71 39.15-32.83 39.15z"/></svg><svg xmlns:xlink="http://www.w3.org/1999/xlink" id="real-estate-agreement-svgrepo-com" style="enable-background:new 0 0 285 285" xml:space="preserve" viewBox="0 0 285 285" version="1.1" y="1772" x="0px" width="32" height="32">		<path d="m130.48 144.07c-3.457 0.569-8.584 3.718-16.019 8.455-3.983 2.548-10.013 6.396-11.157 6.655-3.711-0.922-33.089-8.566-33.089-8.566-0.903-0.26-1.831-0.074-2.592 0.427-0.767 0.507-1.286 1.305-1.423 2.208l-7.873 50.71c-0.247 1.639 0.767 3.197 2.369 3.63l25.927 6.952c-1.991 2.938-2.251 6.915-0.482 10.322 2.295 4.41 7.205 7.577 12.215 7.967 0.291 0.544 0.638 1.095 1.027 1.632 2.857 3.854 7.799 6.377 12.69 6.52 0.421 0.742 0.935 1.479 1.528 2.195 2.913 3.451 7.366 5.703 11.844 6.03 0.427 0.878 0.965 1.72 1.608 2.53 2.721 3.314 6.853 5.294 11.052 5.294 3.668 0 6.902-1.62 8.919-4.503 1.082-1.62 6.729-11.417 6.729-11.417 1.911 0.81 3.03 1.292 3.123 1.329 5.325 2.085 10.793-0.692 12.964-6.426 0.377-1.014 0.631-2.01 0.767-2.993 5.609 2.084 12.079-0.872 14.28-6.352 0.736-1.831 0.946-3.711 0.656-5.511 0.989-0.192 38.791-10.849 38.791-10.849 1.59-0.445 2.586-2.01 2.332-3.631l-9.24-57.457c-0.143-0.896-0.662-1.694-1.423-2.195-0.748-0.489-1.676-0.656-2.579-0.427l-32.1 8.188c-1.496-0.439-5.789-2.523-17.299-9.413-9.66-5.802-12.413-7.28-15.189-7.28-3.39 0-10.546 3.687-15.357 6.631-0.91-0.46-1.86-0.67-2.99-0.65zm78.72 13.3l7.311 45.385-13.854 3.878c1.392-1.473 2.511-3.241 3.253-5.239 1.861-5.442 0.328-10.935-4.106-14.429-0.1-0.074-24.468-13.762-43.641-25.574-0.514-0.315-1.101-0.482-1.701-0.482-0.043 0-5.925 0.223-5.925 0.223-0.433 0.019-0.859 0.123-1.256 0.309-6.766 3.186-7.502 5.796-7.737 6.661-0.624 2.258-3.531 12.865-4.96 18.412-3.433 0.606-10.112-2.511-11.22-4.849 0.371-1.769 0.854-4.255 1.386-6.964 1.138-5.839 2.555-13.105 3.247-15.499 1.447-2.734 15.883-11.281 18.462-11.745 1.293 0.334 6.513 3.444 10.7 5.943 10.897 6.513 18.362 10.786 22.951 10.786 1.98-0.01 20.11-5.04 27.09-6.82zm-71.09 90.25c-1.317 0-2.869-0.773-3.754-1.881-0.718-0.885-0.946-1.855-0.705-2.956 0.272-1.243-0.21-2.53-1.225-3.29-0.575-0.428-1.256-0.644-1.936-0.644-0.538 0-1.083 0.136-1.571 0.408-2.351 1.305-6.234 0.136-8.151-2.171-0.569-0.674-1.2-1.738-0.972-2.95 0.241-1.305-0.346-2.635-1.472-3.34-1.138-0.687-2.579-0.637-3.643 0.154-0.692 0.52-1.571 0.625-2.184 0.625-2.047 0-4.385-1.138-5.542-2.703-0.939-1.273-0.648-2.227-0.55-2.535 0.414-1.343-0.093-2.802-1.243-3.612-1.156-0.792-2.696-0.761-3.81 0.074-1.751 1.317-4.447 0.507-6.148-1.317-0.785-0.835-0.909-1.441-0.921-1.479l5.43-7.972c0.798-1.299 2.969-0.093 4.33 1.459 0.674 0.773 0.871 1.417 0.834 1.664-0.197 1.521 0.699 2.981 2.152 3.488 1.441 0.495 3.063-0.093 3.842-1.41 2.096-3.52 3.859-5.449 5.139-5.709 2.072-0.309 3.854 0.434 5.319 1.937 1.015 1.051 1.447 2.152 1.423 2.771-0.05 1.479 0.902 2.802 2.325 3.223 1.416 0.414 2.926-0.174 3.692-1.441 2.598-4.323 7.947-2.091 9.76 0.655 0.544 0.829 0.755 1.627 0.557 2.104-0.594 1.397-0.143 3.024 1.101 3.908 1.25 0.891 2.932 0.779 4.058-0.253 1.268-1.15 4.41 0.019 5.474 1.898 0.6 1.063 0.52 2.195-0.247 3.464-1.058 1.744-9.036 15.659-10.261 17.472-0.24 0.32-0.79 0.37-1.12 0.37z"/>		<path d="m146.73 57.923c-2.425-2.097-6.036-2.097-8.461 0l-97.623 84.207c-1.423 1.225-2.245 3.018-2.245 4.898v121.78c0 3.581 2.895 6.476 6.476 6.476h195.24c3.581 0 6.476-2.895 6.476-6.476v-121.78c0-1.881-0.823-3.674-2.245-4.898l-97.63-84.207zm86.92 204.41h-182.3v-112.33l91.15-78.619 91.146 78.616v112.33z"/>		<path d="m280.49 124.25l-129.55-111.4c-4.855-4.175-12.029-4.175-16.885 0l-129.55 111.4c-5.425 4.67-6.043 12.853-1.38 18.271 4.67 5.43 12.853 6.036 18.271 1.379l121.1-104.14 121.1 104.14c2.443 2.103 5.449 3.13 8.437 3.13 3.648 0 7.267-1.528 9.834-4.509 4.66-5.42 4.05-13.6-1.38-18.27z"/></svg><svg xmlns:xlink="http://www.w3.org/1999/xlink" id="real-estate-business-house-on-a-hand-svgrepo-com" style="enable-background:new 0 0 883.701 883.7" xml:space="preserve" height="300" viewBox="0 0 883.701 883.7" width="300" version="1.1" y="1804" x="0px">		<path d="m647.95 719.4c0 6.301-1.1 12.4-3.199 18.101 8.6-2.3 18.4-5.9 28-11.5 33.801-19.3 53.1-54.2 57.4-104 1.199-13.7 7.4-26.5 17.6-35.8 10.199-9.4 23.4-14.5 37.199-14.5h7.701l0.199-26.7c0.1-13.9-11.1-25.2-25-25.2h-63.8c-13.701 0-24.9 11.1-25 24.8l-0.3 45.4c0.801 46.8-12.199 76.2-30.699 94.5l-0.1 34.9z"/>		<path d="m836.45 602.1l-43.799-0.3h-7.4-0.199c-13 0-23.801 9.9-24.9 22.9-12.4 143.5-132.5 147.2-144.9 147.2h-1l-217.3-0.3c-6.6 0-12-5.399-12-12.1v-3.8c0-6.601 5.4-11.9 12-11.9l195.9 0.3c13.701 0 24.9-11.1 25-24.899l0.1-14.801 0.201-40.8c0.1-13.8-11-25.1-24.9-25.1l-97.1-0.601c-8.801-0.1-17.5-2.399-25.1-6.899-24.301-14.3-86.801-46.2-162.8-46.2-36.3 0-75.699 7.3-115.5 27.2l-33.7 0.2c1 4.1 1.5 8.399 1.5 12.899l0.2 214.9c0 3.899-0.4 7.7-1.2 11.399h108.4c13.9 0 27.7 1.301 41.3 3.9l53.4 10.1c60.5 11.5 121.9 17.4 183.5 17.801l81.4 0.5s217.2-10.2 233.3-254.9c1.3-14.4-10-26.6-24.4-26.7z"/>		<path d="m127.35 612.3c-3.7-6.2-9.9-10.6-17.3-11.9-1.4-0.199-2.8-0.399-4.3-0.399h-58c-13.8 0-25 11.2-25 25l0.2 214.9c0 13.801 11.2 25 25 25h58c1.7 0 3.4-0.199 5-0.5 7.5-1.5 13.8-6.5 17.2-13.199 1.7-3.4 2.7-7.301 2.7-11.4l-0.2-214.9c0.2-4.5-1.1-8.9-3.3-12.6z"/>		<path d="m614.45 184.8v-154.8c0-16.6-13.398-30-30-30h-36.5c-16.6 0-30 13.4-30 30v58.3l-70.6-70.6c-9.799-9.8-25.6-9.8-35.4 0l-237.5 237.5c-12.6 12.6-3.7 34.1 14.1 34.1h32.3c13.8 0 25 11.2 25 25v193.5c0 13.8 11.2 25 25 25h53.3c13.8 0 25-11.2 25-25v-86c0-13.8 11.2-25 25-25h111c13.799 0 25 11.2 25 25v86.1c0 13.801 11.199 25 25 25h53.299c13.801 0 25-11.199 25-25v-193.5c0-13.8 11.201-25 25-25h32.301c17.801 0 26.699-21.5 14.1-34.1l-70.4-70.5z"/></svg><svg xmlns:xlink="http://www.w3.org/1999/xlink" id="real-estate-symbol-of-bigger-house-proposal-svgrepo-com" style="enable-background:new 0 0 674.01 674.01" xml:space="preserve" height="300" viewBox="0 0 674.01 674.01" width="300" version="1.1" y="2104" x="0px">		<path d="m226.68 357.75v115.05h220.66v-114.72l-110.33-91.386-110.33 91.06zm107.66 71.18h-40.875v-38.217h40.875v38.22zm0-43.2h-40.875v-38.217h40.875v38.22zm5.32-38.21h40.874v38.217h-40.87v-38.22zm0 43.2h40.874v38.217h-40.87v-38.22z"/>		<polygon points="580.5 446.14 508.5 446.14 508.5 503.74 165.6 503.74 165.6 446.14 93.6 446.14 0 574.66 674.01 574.66"/>		<polygon points="165.51 292.84 165.51 389.96 187.6 389.96 196.09 389.96 196.68 389.96 196.68 343.61 337.04 227.77 477.33 343.98 477.33 390.63 477.92 390.63 488.3 390.63 508.5 390.63 508.5 292.88 542.74 321.02 568.48 289.79 337 99.347 229.1 188.18 229.1 147.41 188.6 147.41 188.6 221.48 105.52 289.79 131.26 321.02"/></svg><svg xmlns:xlink="http://www.w3.org/1999/xlink" id="real-estate-worker-svgrepo-com" style="enable-background:new 0 0 481.618 481.618" xml:space="preserve" viewBox="0 0 481.618 481.618" version="1.1" y="2404" x="0px" width="32" height="32"><g fill="#010002">	<path d="m423.09 210.36l-1-11.664-5.43-63.5c-67.353-7.551-111.22-36.652-121.34-43.967-14.948 1.902-26.434 8.291-35.059 19.484-25.215 32.726-15.314 94.324-15.209 94.95l3.666 22.037c20.232 21.305 48.755 34.66 80.457 34.66 39.6-0.01 74.27-20.81 93.91-52.01zm-148.35-50.08c0-8.08 6.552-14.631 14.631-14.631s14.631 6.552 14.631 14.631c0 8.08-6.552 14.631-14.631 14.631s-14.63-6.55-14.63-14.63zm91.85 50.64c-23.402 14.753-51.486 14.851-74.246-1.122-8.112-5.69 2.105-17.168 10.104-11.551 16.94 11.884 38.473 10.713 55.575-0.065 8.38-5.28 16.94 7.46 8.57 12.74zm-0.05-36.01c-8.08 0-14.631-6.552-14.631-14.631 0-8.08 6.552-14.631 14.631-14.631s14.631 6.552 14.631 14.631c0 8.08-6.55 14.63-14.63 14.63z"/>	<path d="m216.85 169.78c4.3 11.77 10.445 24.248 19.11 37.424 0 0-19.858-123.08 60.249-130.82 0 0 49.202 40.204 129.3 47.942l6.072 73.694s3.544-6.096 7.34-16.688c4.731-13.193 9.836-33.376 9.031-57.599-0.406-12.144-2.333-25.296-6.519-39.09-3.967-13.054-9.933-26.654-18.679-40.521-16.29-25.824-52.242-36.205-88.293-36.205-49.682 0-99.559 19.712-98.478 45.886 0 0-12.721 12.429-20.809 34.758-4.438 12.266-7.446 27.515-6.202 45.366 0.76 11.01 3.18 22.99 7.88 35.87z"/>	<path d="m408.46 274.56h-44.049l-7.771 174.76h-56.567l-7.771-174.76h-44.049c-35.912 0-65.029 29.117-65.029 65.029l-8.129 134.12h306.52l-8.129-134.12c0.01-35.92-29.11-65.03-65.02-65.03z"/>	<polygon points="331.17 274.56 328.35 271.74 325.55 274.56 304.89 295.22 321.5 311.83 304.89 409.02 328.35 432.48 351.83 409.02 335.21 311.83 351.83 295.22"/>	<path d="m52.893 377.09h58.396c29.214 0 52.893-23.679 52.893-52.893v-82.221l28.531-28.531c5.162-5.162 5.162-13.534 0-18.696l-28.669-28.669c-1.447-27.922-24.467-50.129-52.746-50.129h-58.397c-29.214 0-52.893 23.68-52.893 52.89v155.36c0 29.21 23.679 52.89 52.893 52.89zm-36.636-208.25c0-20.2 16.436-36.635 36.635-36.635h58.396c19.468 0 35.506 15.249 36.514 34.717l0.325 6.243 4.414 4.414 26.524 26.524-26.385 26.385-4.763 4.763v88.959c0 20.199-16.436 36.635-36.635 36.635h-58.367c-20.2-0.008-36.635-16.444-36.635-36.644v-155.36z"/>	<path d="m35.928 243.75l3.723-2.78v45.78c0 4.487 3.642 8.129 8.129 8.129h64.362c4.487 0 8.129-3.642 8.129-8.129v-46.195l4.373 3.227c1.455 1.073 3.146 1.585 4.82 1.585 2.495 0 4.958-1.146 6.552-3.3 2.666-3.617 1.894-8.706-1.715-11.364l-49.511-36.514c-2.886-2.13-6.82-2.113-9.689 0.024l-48.893 36.514c-3.601 2.691-4.341 7.779-1.65 11.372 2.682 3.59 7.778 4.34 11.371 1.64zm44.065-32.91l24.248 17.883c-0.049 0.374-0.219 0.699-0.219 1.089v48.804h-13.25v-28.466h-21.612v28.466h-13.25v-48.812c0-0.301-0.138-0.561-0.171-0.854l24.256-18.11z"/></g></svg><svg xmlns:xlink="http://www.w3.org/1999/xlink" id="signing-the-contract-svgrepo-com" style="enable-background:new 0 0 47 47" xml:space="preserve" height="47" viewBox="0 0 47 47" width="47" version="1.1" y="2436" x="0px">	<g id="signing-the-contract-svgrepo-com-Layer_1_155_">			<path d="m26.198 8.368h-16.022c-1.18 0-2.137 0.957-2.137 2.136s0.957 2.136 2.137 2.136h16.022c1.182 0 2.137-0.957 2.137-2.136-0.001-1.179-0.956-2.136-2.137-2.136z"/>			<path d="m28.334 18.515c0-1.18-0.955-2.136-2.137-2.136h-16.021c-1.18 0-2.137 0.957-2.137 2.136 0 1.18 0.957 2.137 2.137 2.137h16.022c1.181 0 2.136-0.957 2.136-2.137z"/>			<path d="m18.188 28.663c1.18 0 2.136-0.957 2.136-2.136 0-1.18-0.956-2.137-2.136-2.137h-8.012c-1.18 0-2.137 0.957-2.137 2.137s0.957 2.136 2.137 2.136h8.012z"/>			<path d="m34.314 35.93l-2.241 1.479v5.318h-27.772v-38.454h27.772v8.442l4.273-7.401v-3.178c0-1.18-0.957-2.136-2.137-2.136h-32.045c-1.18 0-2.136 0.957-2.136 2.136v42.729c0 1.18 0.956 2.136 2.136 2.136h32.045c1.181 0 2.138-0.957 2.138-2.136v-11.775l-1.021 1.766c-0.249 0.431-0.599 0.802-1.012 1.074z"/>			<path d="m46.947 9.894c-0.044-0.192-0.495-1.918-3.213-3.488-2.718-1.569-4.438-1.097-4.628-1.038-0.255 0.081-0.47 0.253-0.604 0.485l-13.352 23.126c-0.083 0.145-0.132 0.306-0.142 0.472l-0.5 8.345c-0.024 0.404 0.182 0.786 0.531 0.989 0.352 0.202 0.785 0.188 1.123-0.033l6.977-4.606c0.139-0.09 0.254-0.213 0.337-0.356l13.353-23.13c0.134-0.232 0.175-0.504 0.118-0.766zm-18.093 25.161c-0.355-0.287-0.758-0.558-1.191-0.809-0.435-0.251-0.871-0.462-1.297-0.628l0.149-2.502c0.557 0.073 1.383 0.299 2.432 0.903 1.048 0.605 1.655 1.209 1.999 1.654l-2.092 1.382z"/>			<path d="m14.922 38.534c0.07 0.429 0.565 0.562 0.896 0.7 0.32 0.135 0.702-0.121 0.968-0.25 1.63-0.793 3.838 0.139 5.584 0.139 1.033 0 1.033-1.602 0-1.602-2.036 0-3.73-0.515-5.748-0.182 0-0.117-0.043-0.275-0.169-0.49-0.377-0.645-0.857-0.828-1.338-0.75-0.032-0.076-0.063-0.152-0.108-0.229-0.126-0.206-0.302-0.309-0.5-0.352 0.563-0.984 0.926-2.025 0.557-2.867-0.113-0.256-0.434-0.387-0.692-0.397-1.07-0.04-1.988 1.083-2.676 1.757-1.721 1.687-3.237 3.602-4.704 5.508-0.63 0.819 0.763 1.615 1.383 0.81 1.3-1.688 2.677-3.327 4.159-4.86-0.357 0.586-0.736 1.161-1.135 1.715-0.57 0.881 0.791 1.631 1.383 0.809 0.141-0.215 0.32-0.37 0.516-0.503-0.039 0.099-0.079 0.196-0.119 0.296 0.002 0 0.004 0.001 0.006 0.002-0.031 0.064-0.062 0.128-0.087 0.189-0.358 0.897 0.979 1.308 1.465 0.616 0.123-0.174 0.237-0.36 0.34-0.555-0.007 0.134-0.01 0.314 0.019 0.496z"/>	</g></svg><svg xmlns:xlink="http://www.w3.org/1999/xlink" id="woman-of-black-short-hair-svgrepo-com" style="enable-background:new 0 0 476.057 476.057" xml:space="preserve" height="300" viewBox="0 0 476.057 476.057" width="300" version="1.1" y="2483" x="0px">	<g id="woman-of-black-short-hair-svgrepo-com-Layer_2_7_">			<path d="m185.94 210.94c-13.174 0-23.854 10.68-23.854 23.84 0 13.144 10.68 23.84 23.854 23.84 13.143 0 23.824-10.662 23.824-23.84 0.01-13.16-10.67-23.84-23.82-23.84zm4.9 39.03c-6.751 0-12.22-5.479-12.22-12.25 0-6.736 5.469-12.215 12.22-12.215 6.749 0 12.195 5.479 12.195 12.215-0.01 6.77-5.46 12.25-12.2 12.25z"/>			<path d="m289.46 210.94c-13.144 0-23.824 10.68-23.824 23.84 0 13.178 10.682 23.84 23.824 23.84 13.173 0 23.854-10.696 23.854-23.84 0-13.16-10.68-23.84-23.85-23.84zm-4.89 39.03c-6.749 0-12.195-5.479-12.195-12.25 0-6.736 5.446-12.215 12.195-12.215 6.751 0 12.22 5.479 12.22 12.215-0.01 6.77-5.48 12.25-12.23 12.25z"/>			<path d="m451.42 314.58s-15.574-59.729-28.599-107.17c-0.006-0.022-0.21-2.393-0.21-2.393-0.334-4.403-0.896-11.542-1.197-13.138-1.683-20.121-5.638-77.74-29.809-113.05-29.4-42.968-109.85-78.415-153.82-78.827v-0.003c-0.026 0-0.052 0.001-0.078 0.001s-0.052-0.001-0.078-0.001v0.003c-43.96 0.412-124.42 35.858-153.82 78.827-24.17 35.313-28.126 92.933-29.809 113.05-0.37 1.958-1.131 12.265-1.384 15.616-13.021 47.43-27.968 107.08-27.968 107.08-0.001 0-0.923 3.257 1.801 5.603 8.548 7.361 33.017 25.373 74.656 38.287-20.044 12.426-36.117 32.605-36.117 55.799v61.785h143.38c-13.913-29.441-24.931-62.428-31.793-73.594-0.014-0.025-0.03-0.049-0.043-0.072-0.017-0.027-0.033-0.057-0.049-0.084-0.001 0-0.003-0.002-0.004-0.004-1.532-2.689-4.419-4.506-7.736-4.506-1.409 0-2.736 0.334-3.921 0.918-0.009 0.004-0.018 0.008-0.026 0.012-0.01 0.004-0.021 0.01-0.03 0.016-0.14 0.068-0.277 0.141-0.412 0.217-11.118 5.637-27.463 19.971-37.916 24.264-0.564 0.232-1.13 0.328-1.686 0.33-0.077 0.002-0.148 0.021-0.225 0.021-1.71 0-3.214-0.844-4.149-2.129-0.022-0.021-0.048-0.045-0.069-0.066-4.936-4.938 7.742-55.807 7.742-55.807 12.436 2.738 29.311 5.422 44.347 7.121 0.067 0.008 0.133-0.004 0.199-0.002 0.104 0.006 0.201 0.031 0.306 0.031 3.138 0 5.683-2.543 5.683-5.682 0-0.047-0.013-0.09-0.014-0.139l0.131-30.459c19.259 8.662 39.344 13.185 59.283 13.24v0.002h0.062 0.06v-0.002c19.94-0.056 40.024-4.578 59.284-13.24l0.131 30.459c0 0.049-0.013 0.092-0.013 0.139 0 3.139 2.544 5.682 5.682 5.682 0.105 0 0.202-0.024 0.307-0.031 0.065-0.002 0.133 0.01 0.199 0.002 15.036-1.699 31.911-4.383 44.347-7.121 0 0 12.678 50.869 7.742 55.807-0.021 0.021-0.047 0.045-0.069 0.066-0.935 1.285-2.438 2.129-4.148 2.129-0.077 0-0.148-0.02-0.226-0.021-0.556 0-1.122-0.098-1.686-0.33-10.589-4.352-27.235-19.021-38.358-24.496-3.591-1.768-9.801 0.359-11.687 3.582-6.56 11.201-17.911 44.178-31.886 73.75h143.37v-61.787c0-23.191-16.072-43.371-36.116-55.799 41.639-12.914 66.107-30.925 74.655-38.285 2.74-2.36 1.82-5.62 1.82-5.62zm-74.09-75.99c-0.39 0-0.966-0.047-1.578-0.098l-7.527-0.592-3.258 6.319c-20.836 40.418-69.422 83.909-126.94 84.068-57.515-0.159-106.1-43.65-126.94-84.068l-3.257-6.319-7.528 0.592c-0.611 0.05-1.188 0.098-1.578 0.098-16.36 0-24.655-10.895-24.655-32.381 0-0.281 0.004-0.597 0.009-0.926 0.017-0.99 0.064-2.19 0.16-3.536h-0.076c0.037-0.426 0.075-0.853 0.124-1.303 33.016 0.513 167.32-26.096 218.47-47.069 5.646-2.315 15.396-0.982 20.634 3.167 24.747 19.602 56.584 44.387 87.72 43.903 0.062 0.572 0.113 1.122 0.158 1.657 0.178 2.13 0.226 3.941 0.226 5.222 0 5.821-0.616 10.856-1.833 15.111h0.158c-3.42 10.74-10.94 16.16-22.48 16.16z"/>	</g></svg></svg>
