<?xml version="1.0" encoding="UTF-8" standalone="no"?><!DOCTYPE svg PUBLIC "-//W3C//DTD SVG 1.1//EN" "http://www.w3.org/Graphics/SVG/1.1/DTD/svg11.dtd"><svg width="100%" height="100%" viewBox="0 0 716 698" version="1.1" xmlns="http://www.w3.org/2000/svg" xmlns:xlink="http://www.w3.org/1999/xlink" xml:space="preserve" style="fill-rule:evenodd;clip-rule:evenodd;stroke-linejoin:round;stroke-miterlimit:1.41421;"><rect id="Artboard1" x="0" y="0" width="715.443" height="697.215" style="fill:none;"/><g id="Layer-1"><path d="M669.843,549.39c0,55.625 -45.256,100.881 -100.879,100.881l-420.991,0c-55.626,0 -100.88,-45.256 -100.88,-100.881l0,-403.521c0,-55.625 45.254,-100.88 100.88,-100.88l420.991,0c55.623,0 100.879,45.255 100.879,100.88l0,403.521Zm-104.539,-537.762l-413.672,0c-75.955,0 -137.748,61.793 -137.748,137.747l0,396.509c0,75.953 61.793,137.748 137.748,137.748l413.672,0c75.955,0 137.748,-61.795 137.748,-137.748l0,-396.509c0,-75.954 -61.793,-137.747 -137.748,-137.747" style="fill:#355c82;fill-rule:nonzero;"/><rect x="335.485" y="312.3" width="20.685" height="20.688" style="fill:#355c82;fill-rule:nonzero;"/><rect x="362.903" y="312.3" width="20.689" height="20.688" style="fill:#8cc63f;fill-rule:nonzero;"/><rect x="335.485" y="339.643" width="20.685" height="20.687" style="fill:#355c82;fill-rule:nonzero;"/><rect x="362.903" y="339.643" width="20.689" height="20.687" style="fill:#355c82;fill-rule:nonzero;"/><path d="M493.591,317.29l-25.633,-14.168l-104.206,-57.599l-264.959,145.267l49.702,0l215.257,-111.967l238.126,127.965l53.631,0l-161.918,-89.498Z" style="fill:#8cc63f;fill-rule:nonzero;"/><path d="M493.591,273.487l-25.633,0l0,21.19l25.633,14.168l0,-35.358Z" style="fill:#8cc63f;fill-rule:nonzero;"/><path d="M525.225,184.904c20.736,29.64 14.885,73.669 -11.313,120.774c9.09,5.929 18.282,11.698 27.667,17.151c32.138,-54.957 40.011,-106.839 15.826,-141.406c-44.026,-62.926 -178.358,-45.725 -306.196,36.918c114.727,-73.878 234.809,-89.474 274.016,-33.437" style="fill:#355c82;fill-rule:nonzero;"/><path d="M474.19,361.699c-24.488,28.43 -55.308,56.383 -91.172,81.477c-119.728,83.767 -250.179,103.955 -291.367,45.087c-41.139,-58.798 22.321,-174.214 141.76,-257.959c-0.149,0.104 -0.298,0.207 -0.448,0.311c-133.057,93.096 -203.529,222.01 -157.4,287.938c46.126,65.927 191.384,43.904 324.441,-49.192c40.276,-28.18 74.805,-59.641 102.112,-91.644c-9.27,-5.403 -18.576,-10.75 -27.926,-16.018" style="fill:#355c82;fill-rule:nonzero;"/><path d="M242.345,224.181c-0.005,0.004 -0.01,0.007 -0.014,0.011c0.004,-0.004 0.009,-0.007 0.014,-0.011" style="fill:#1f8bcb;fill-rule:nonzero;"/><path d="M208.886,370.017c0,0 -21.86,11.08 -25.947,13.151l-0.657,1.064c-0.053,9.992 -0.622,118.813 -0.622,118.813l26.857,0l0.369,-133.028Z" style="fill:#355c82;"/></g></svg>