<?xml version="1.0" encoding="UTF-8" standalone="no"?><!DOCTYPE svg PUBLIC "-//W3C//DTD SVG 1.1//EN" "http://www.w3.org/Graphics/SVG/1.1/DTD/svg11.dtd"><svg width="100%" height="100%" viewBox="0 0 1300 710" version="1.1" xmlns="http://www.w3.org/2000/svg" xmlns:xlink="http://www.w3.org/1999/xlink" xml:space="preserve" style="fill-rule:evenodd;clip-rule:evenodd;stroke-linejoin:round;stroke-miterlimit:1.41421;"><rect id="Artboard1" x="0" y="0" width="1300" height="709.375" style="fill:none;"/><g id="Layer-1"><rect x="622.236" y="256.417" width="29.067" height="29.069" style="fill:#355c82;fill-rule:nonzero;"/><rect x="660.764" y="256.417" width="29.07" height="29.069" style="fill:#8bd155;fill-rule:nonzero;"/><rect x="622.236" y="294.839" width="29.067" height="29.067" style="fill:#355c82;fill-rule:nonzero;"/><rect x="660.764" y="294.839" width="29.07" height="29.067" style="fill:#355c82;fill-rule:nonzero;"/><path d="M494.522,538.062c-195.648,77.105 -353.663,77.281 -368.559,-6.339c-13.987,-78.517 102.594,-206.313 274.307,-310.985c-199.605,118.996 -336.455,266.813 -320.403,356.92c15.422,86.577 167.271,93.286 362.975,26.134c27.478,-9.428 55.82,-20.313 84.77,-32.637c-11.03,-11.031 -22.061,-22.061 -33.09,-33.093" style="fill:#355c82;fill-rule:nonzero;"/><path d="M964.28,129.627c5.578,31.32 -9.643,70.484 -40.829,112.892c13.141,9.26 26.187,18.659 39.435,27.755c44.313,-54.514 66.782,-105.229 59.727,-144.807c-17.02,-95.566 -200.266,-93.819 -425.234,-2.839c194.883,-76.456 352.047,-76.384 366.901,6.999" style="fill:#8bd155;fill-rule:nonzero;"/><path d="M844.4,263.429l-36.019,-19.909l-146.427,-80.935l-372.309,204.124l69.84,0l302.469,-157.333l334.607,179.812l75.36,0l-227.521,-125.759Z" style="fill:#8bd155;fill-rule:nonzero;"/><path d="M844.4,201.878l-36.019,0l0,29.775l36.019,19.909l0,-49.684Z" style="fill:#8bd155;fill-rule:nonzero;"/><path d="M564.862,574.55l4.685,-7.279l4.003,0l0,0.151l-7.025,10.199l0,7.279l-3.325,0l0,-7.279l-6.774,-10.199l0,-0.151l3.954,0l4.482,7.279Z" style="fill:#355c82;fill-rule:nonzero;"/><path d="M582.598,576.262c0.075,2.896 1.636,5.993 5.792,5.993c4.155,0 5.716,-3.123 5.767,-6.018c0.05,-2.972 -1.612,-6.295 -5.767,-6.295c-4.156,0 -5.868,3.347 -5.792,6.32m14.833,-0.075c-0.05,4.557 -2.846,9.115 -9.041,9.115c-6.195,0 -9.066,-4.457 -9.066,-9.092c0,-4.634 2.972,-9.291 9.066,-9.291c6.069,0 9.091,4.657 9.041,9.268" style="fill:#355c82;fill-rule:nonzero;"/><path d="M620.429,567.296l0,10.1c0,5.212 -3.198,7.88 -7.63,7.88c-4.231,0 -7.832,-2.567 -7.832,-7.88l0,-10.1l3.299,0l0,10.1c0,3.171 1.813,4.859 4.558,4.859c2.745,0 4.306,-1.838 4.306,-4.859l0,-10.1l3.299,0Z" style="fill:#355c82;fill-rule:nonzero;"/><path d="M632.12,570.368l0,5.642l5.062,0c2.115,0 3.021,-1.411 3.021,-2.822c0,-1.41 -0.931,-2.82 -3.021,-2.82l-5.062,0Zm12.289,14.531l-3.953,0l-5.137,-5.892l-3.199,0l0,5.892l-3.325,0l0,-17.653c2.797,0 5.592,0.024 8.387,0.024c4.155,0.026 6.346,2.795 6.346,5.843c0,2.418 -1.108,4.86 -4.457,5.54l5.338,6.019l0,0.227Z" style="fill:#355c82;fill-rule:nonzero;"/><path d="M663.531,576.262c0.076,2.896 1.638,5.993 5.793,5.993c4.154,0 5.717,-3.123 5.767,-6.018c0.05,-2.972 -1.613,-6.295 -5.767,-6.295c-4.155,0 -5.868,3.347 -5.793,6.32m14.834,-0.075c-0.052,4.557 -2.847,9.115 -9.041,9.115c-6.195,0 -9.066,-4.457 -9.066,-9.092c0,-4.634 2.971,-9.291 9.066,-9.291c6.068,0 9.091,4.657 9.041,9.268" style="fill:#355c82;fill-rule:nonzero;"/><path d="M697.485,567.246l3.324,0l0,17.653l-2.065,0l0,0.026l-9.268,-11.912l0,11.886l-3.323,0l0,-17.629l2.694,0l8.638,10.931l0,-10.955Z" style="fill:#355c82;fill-rule:nonzero;"/><path d="M712.274,567.27l0,14.557l9.065,0l0,3.072l-12.389,0l0,-17.629l3.324,0Z" style="fill:#355c82;fill-rule:nonzero;"/><rect x="723.711" y="567.27" width="3.3" height="17.629" style="fill:#355c82;fill-rule:nonzero;"/><path d="M746.807,567.246l3.324,0l0,17.653l-2.065,0l0,0.026l-9.268,-11.912l0,11.886l-3.324,0l0,-17.629l2.695,0l8.638,10.931l0,-10.955Z" style="fill:#355c82;fill-rule:nonzero;"/><path d="M771.417,584.899l-13.195,0l0,-17.629l13.195,0l0,3.224l-9.897,0l0,4.055l9.545,0l0,3.097l-9.545,0l0,3.979l9.897,0l0,3.274Z" style="fill:#355c82;fill-rule:nonzero;"/><path d="M800.134,571.526c-0.604,-1.007 -2.267,-1.964 -4.181,-1.964c-2.466,0 -3.652,1.033 -3.652,2.342c0,1.537 1.813,1.964 3.931,2.217c3.675,0.453 7.1,1.41 7.1,5.616c0,3.928 -3.474,5.614 -7.404,5.614c-3.601,0 -6.371,-1.107 -7.68,-4.331l2.769,-1.434c0.782,1.938 2.821,2.794 4.962,2.794c2.09,0 4.054,-0.73 4.054,-2.643c0,-1.662 -1.737,-2.342 -4.08,-2.595c-3.6,-0.429 -6.924,-1.385 -6.924,-5.339c0,-3.627 3.576,-5.111 6.824,-5.137c2.745,0 5.591,0.78 6.925,3.501l-2.644,1.359Z" style="fill:#355c82;fill-rule:nonzero;"/><path d="M824.139,584.899l-13.195,0l0,-17.629l13.195,0l0,3.224l-9.897,0l0,4.055l9.545,0l0,3.097l-9.545,0l0,3.979l9.897,0l0,3.274Z" style="fill:#355c82;fill-rule:nonzero;"/><path d="M836.357,570.293l-5.59,0l0,-3.022l14.506,0l0,3.022l-5.59,0l0,14.606l-3.326,0l0,-14.606Z" style="fill:#355c82;fill-rule:nonzero;"/><path d="M856.938,570.293l-5.591,0l0,-3.022l14.505,0l0,3.022l-5.591,0l0,14.606l-3.323,0l0,-14.606Z" style="fill:#355c82;fill-rule:nonzero;"/><path d="M876.284,567.27l0,14.557l9.066,0l0,3.072l-12.389,0l0,-17.629l3.323,0Z" style="fill:#355c82;fill-rule:nonzero;"/><path d="M905.93,584.899l-13.196,0l0,-17.629l13.196,0l0,3.224l-9.896,0l0,4.055l9.543,0l0,3.097l-9.543,0l0,3.979l9.896,0l0,3.274Z" style="fill:#355c82;fill-rule:nonzero;"/><path d="M928.953,572.132l-5.742,7.655l-0.654,0l-5.617,-7.68l0,12.818l-3.324,0l0,-17.629l3.827,0l5.516,7.579l5.515,-7.579l3.802,0l0,17.629l-3.323,0l0,-12.793Z" style="fill:#355c82;fill-rule:nonzero;"/><path d="M953.639,584.899l-13.196,0l0,-17.629l13.196,0l0,3.224l-9.896,0l0,4.055l9.544,0l0,3.097l-9.544,0l0,3.979l9.896,0l0,3.274Z" style="fill:#355c82;fill-rule:nonzero;"/><path d="M972.885,567.246l3.323,0l0,17.653l-2.064,0l0,0.026l-9.268,-11.912l0,11.886l-3.324,0l0,-17.629l2.694,0l8.639,10.931l0,-10.955Z" style="fill:#355c82;fill-rule:nonzero;"/><path d="M988.907,570.293l-5.591,0l0,-3.022l14.505,0l0,3.022l-5.591,0l0,14.606l-3.323,0l0,-14.606Z" style="fill:#355c82;fill-rule:nonzero;"/><path d="M1027.12,584.925l0,-7.127l-8.664,0l0,7.127l-3.322,0l0,-17.629l3.322,0l0,7.43l8.664,0l0,-7.43l3.299,0l0,17.629l-3.299,0Z" style="fill:#355c82;fill-rule:nonzero;"/><path d="M1054.1,567.296l0,10.1c0,5.212 -3.197,7.88 -7.63,7.88c-4.231,0 -7.831,-2.567 -7.831,-7.88l0,-10.1l3.298,0l0,10.1c0,3.171 1.814,4.859 4.559,4.859c2.745,0 4.306,-1.838 4.306,-4.859l0,-10.1l3.298,0Z" style="fill:#355c82;fill-rule:nonzero;"/><path d="M1065.61,581.803l5.089,0c1.359,0 3.299,-0.454 3.299,-2.116c0,-1.588 -1.94,-2.418 -3.299,-2.418l-5.089,0l0,4.534Zm0,-7.455l5.089,0c2.09,0 2.768,-0.883 2.768,-1.89c0,-0.805 -0.653,-2.165 -2.768,-2.165l-5.089,0l0,4.055Zm11.157,-1.965c0,1.36 -0.654,2.671 -2.291,3.401c2.065,0.628 2.821,2.82 2.821,3.927c0,3.931 -2.948,5.189 -6.598,5.189l-8.361,0l0,-17.629l8.361,0c3.474,0 6.068,1.561 6.068,5.112" style="fill:#355c82;fill-rule:nonzero;"/><g><path d="M377.151,519.97l-88.041,0l0,-136.707l88.041,0l0,23.751l-55.627,0l0,30.015l51.758,0l0,23.751l-51.758,0l0,35.253l55.627,0l0,23.937Z" style="fill:#355c82;fill-rule:nonzero;"/><path d="M396.181,471.203l0,-23.377l56.15,0l0,23.377l-31.989,0l-24.161,0Z" style="fill:#355c82;fill-rule:nonzero;"/><path d="M542.881,405.424c-6.204,0 -11.694,1.075 -16.468,3.226c-4.775,2.151 -8.784,5.236 -12.025,9.257c-3.242,4.021 -5.699,8.915 -7.372,14.681c-1.673,5.766 -2.509,12.234 -2.509,19.403c0,7.293 0.749,13.776 2.248,19.449c1.499,5.673 3.799,10.457 6.901,14.353c3.102,3.897 7.075,6.858 11.92,8.884c4.845,2.026 10.613,3.039 17.305,3.039c6.204,0 12.425,-0.624 18.664,-1.87c6.239,-1.247 13.018,-3.024 20.337,-5.33l0,24.312c-3.345,1.246 -6.657,2.306 -9.933,3.179c-3.276,0.872 -6.622,1.589 -10.038,2.15c-3.415,0.561 -6.918,0.982 -10.508,1.263c-3.59,0.28 -7.442,0.421 -11.554,0.421c-11.781,0 -21.993,-1.684 -30.637,-5.05c-8.644,-3.366 -15.789,-8.104 -21.435,-14.213c-5.646,-6.109 -9.829,-13.465 -12.547,-22.068c-2.719,-8.602 -4.078,-18.171 -4.078,-28.706c0,-10.349 1.568,-19.84 4.705,-28.473c3.137,-8.634 7.737,-16.068 13.802,-22.302c6.065,-6.234 13.558,-11.08 22.481,-14.54c8.922,-3.46 19.169,-5.19 30.741,-5.19c7.598,0 15.214,0.857 22.847,2.572c7.633,1.714 14.935,4.067 21.905,7.059l-10.456,23.564c-5.716,-2.431 -11.467,-4.551 -17.252,-6.358c-5.786,-1.808 -11.467,-2.712 -17.044,-2.712Z" style="fill:#355c82;fill-rule:nonzero;"/><path d="M643.783,519.97l-31.891,0l0,-145.497l31.891,0l0,145.497Z" style="fill:#355c82;fill-rule:nonzero;"/><path d="M703.801,467.513c0,10.41 1.639,18.249 4.915,23.517c3.276,5.267 8.609,7.901 15.998,7.901c7.319,0 12.617,-2.649 15.893,-7.948c3.276,-5.299 4.915,-13.122 4.915,-23.47c0,-10.411 -1.639,-18.187 -4.915,-23.33c-3.276,-5.143 -8.644,-7.715 -16.102,-7.715c-7.32,0 -12.6,2.572 -15.841,7.715c-3.242,5.143 -4.863,12.919 -4.863,23.33Zm74.239,0c0,8.727 -1.237,16.457 -3.712,23.19c-2.474,6.732 -6.029,12.405 -10.665,17.018c-4.636,4.613 -10.282,8.12 -16.939,10.52c-6.657,2.4 -14.133,3.6 -22.428,3.6c-7.738,0 -14.848,-1.2 -21.331,-3.6c-6.483,-2.4 -12.077,-5.907 -16.782,-10.52c-4.706,-4.613 -8.383,-10.286 -11.031,-17.018c-2.649,-6.733 -3.974,-14.463 -3.974,-23.19c0,-8.665 1.237,-16.364 3.712,-23.096c2.475,-6.733 6.03,-12.39 10.665,-16.972c4.636,-4.582 10.265,-8.057 16.887,-10.426c6.622,-2.369 14.116,-3.553 22.481,-3.553c7.737,0 14.848,1.184 21.33,3.553c6.483,2.369 12.077,5.844 16.783,10.426c4.705,4.582 8.382,10.239 11.031,16.972c2.649,6.732 3.973,14.431 3.973,23.096Z" style="fill:#355c82;fill-rule:nonzero;"/><path d="M883.438,488.926c0,5.486 -1.115,10.286 -3.346,14.4c-2.23,4.114 -5.402,7.543 -9.515,10.286c-4.112,2.743 -9.097,4.8 -14.952,6.171c-5.855,1.372 -12.408,2.058 -19.658,2.058c-3.834,0 -7.389,-0.11 -10.665,-0.328c-3.276,-0.218 -6.378,-0.576 -9.306,-1.075c-2.928,-0.499 -5.751,-1.122 -8.469,-1.87c-2.719,-0.748 -5.472,-1.683 -8.261,-2.805l0,-23.564c2.928,1.309 6.013,2.493 9.254,3.553c3.241,1.06 6.465,1.979 9.672,2.758c3.206,0.78 6.326,1.388 9.358,1.824c3.032,0.436 5.838,0.654 8.417,0.654c2.858,0 5.298,-0.233 7.32,-0.701c2.021,-0.467 3.677,-1.122 4.966,-1.964c1.29,-0.841 2.231,-1.838 2.824,-2.992c0.592,-1.153 0.888,-2.384 0.888,-3.693c0,-1.309 -0.226,-2.478 -0.679,-3.507c-0.453,-1.028 -1.482,-2.119 -3.085,-3.273c-1.603,-1.153 -3.956,-2.462 -7.058,-3.927c-3.102,-1.465 -7.267,-3.257 -12.495,-5.377c-5.089,-2.057 -9.498,-4.098 -13.227,-6.124c-3.729,-2.026 -6.796,-4.286 -9.201,-6.78c-2.405,-2.493 -4.2,-5.345 -5.385,-8.555c-1.185,-3.211 -1.778,-7.029 -1.778,-11.455c0,-4.862 1.046,-9.117 3.137,-12.764c2.091,-3.647 5.054,-6.686 8.888,-9.117c3.834,-2.431 8.452,-4.254 13.854,-5.47c5.402,-1.216 11.415,-1.823 18.037,-1.823c6.971,0 13.593,0.716 19.867,2.15c6.273,1.434 12.721,3.585 19.344,6.452l-9.62,20.198c-5.298,-2.244 -10.352,-4.083 -15.161,-5.517c-4.81,-1.434 -9.62,-2.151 -14.43,-2.151c-4.322,0 -7.441,0.686 -9.358,2.057c-1.917,1.372 -2.876,3.242 -2.876,5.611c0,1.247 0.244,2.353 0.732,3.319c0.488,0.967 1.464,1.964 2.928,2.993c1.464,1.028 3.52,2.15 6.169,3.366c2.649,1.215 6.1,2.696 10.352,4.441c4.949,1.933 9.41,3.85 13.384,5.751c3.973,1.901 7.389,4.068 10.247,6.499c2.858,2.431 5.053,5.267 6.587,8.509c1.534,3.242 2.3,7.169 2.3,11.782Z" style="fill:#355c82;fill-rule:nonzero;"/><path d="M907.174,388.406c0,-2.681 0.453,-4.909 1.359,-6.686c0.906,-1.777 2.144,-3.211 3.712,-4.301c1.569,-1.091 3.416,-1.855 5.542,-2.291c2.126,-0.437 4.374,-0.655 6.744,-0.655c2.37,0 4.601,0.218 6.692,0.655c2.091,0.436 3.921,1.2 5.49,2.291c1.568,1.09 2.823,2.524 3.764,4.301c0.941,1.777 1.411,4.005 1.411,6.686c0,2.618 -0.47,4.831 -1.411,6.639c-0.941,1.807 -2.196,3.257 -3.764,4.348c-1.569,1.091 -3.399,1.87 -5.49,2.337c-2.091,0.468 -4.322,0.702 -6.692,0.702c-2.37,0 -4.618,-0.234 -6.744,-0.702c-2.126,-0.467 -3.973,-1.246 -5.542,-2.337c-1.568,-1.091 -2.806,-2.541 -3.712,-4.348c-0.906,-1.808 -1.359,-4.021 -1.359,-6.639Zm33.251,131.564l-31.892,0l0,-104.541l31.892,0l0,104.541Z" style="fill:#355c82;fill-rule:nonzero;"/><path d="M1075.31,519.97l-31.891,0l0,-61.06c0,-7.543 -1.272,-13.2 -3.817,-16.971c-2.544,-3.772 -6.605,-5.658 -12.181,-5.658c-4.183,0 -7.668,0.748 -10.456,2.245c-2.789,1.496 -5.002,3.709 -6.64,6.639c-1.638,2.929 -2.806,6.545 -3.503,10.846c-0.697,4.302 -1.045,9.226 -1.045,14.775l0,49.184l-31.892,0l0,-104.541l24.363,0l4.287,13.372l1.778,0c1.673,-2.681 3.712,-4.987 6.117,-6.92c2.404,-1.932 5.036,-3.522 7.894,-4.769c2.858,-1.246 5.89,-2.166 9.097,-2.758c3.206,-0.592 6.483,-0.888 9.829,-0.888c5.716,0 10.909,0.732 15.579,2.197c4.671,1.465 8.679,3.756 12.025,6.873c3.346,3.117 5.925,7.091 7.738,11.922c1.812,4.831 2.718,10.613 2.718,17.346l0,68.166Z" style="fill:#355c82;fill-rule:nonzero;"/><path d="M1204.86,415.616l0,15.522l-17.044,4.769c1.395,2.12 2.371,4.317 2.928,6.593c0.558,2.275 0.837,4.722 0.837,7.34c0,5.299 -0.941,10.145 -2.823,14.54c-1.883,4.395 -4.671,8.151 -8.365,11.268c-3.695,3.117 -8.33,5.532 -13.907,7.247c-5.577,1.714 -12.06,2.571 -19.449,2.571c-1.603,0 -3.346,-0.078 -5.228,-0.234c-1.882,-0.155 -3.276,-0.327 -4.182,-0.514c-1.394,1.06 -2.492,2.166 -3.294,3.32c-0.801,1.153 -1.202,2.54 -1.202,4.161c0,1.309 0.453,2.353 1.359,3.132c0.906,0.779 2.091,1.403 3.555,1.87c1.464,0.468 3.172,0.78 5.124,0.935c1.951,0.156 3.973,0.234 6.064,0.234l18.194,0c5.646,0 10.7,0.577 15.161,1.73c4.462,1.153 8.243,2.914 11.345,5.283c3.102,2.369 5.49,5.377 7.163,9.024c1.673,3.647 2.509,7.995 2.509,13.044c0,5.922 -1.324,11.268 -3.973,16.037c-2.649,4.768 -6.605,8.82 -11.868,12.155c-5.263,3.336 -11.798,5.891 -19.605,7.668c-7.807,1.777 -16.835,2.665 -27.082,2.665c-7.946,0 -14.882,-0.67 -20.807,-2.01c-5.926,-1.341 -10.875,-3.273 -14.848,-5.798c-3.973,-2.525 -6.953,-5.564 -8.94,-9.117c-1.987,-3.553 -2.98,-7.574 -2.98,-12.062c0,-3.803 0.732,-7.107 2.196,-9.912c1.463,-2.805 3.415,-5.205 5.855,-7.2c2.44,-1.995 5.211,-3.616 8.313,-4.862c3.102,-1.247 6.291,-2.213 9.567,-2.899c-1.464,-0.561 -2.91,-1.34 -4.339,-2.338c-1.429,-0.997 -2.719,-2.151 -3.869,-3.46c-1.15,-1.309 -2.091,-2.758 -2.823,-4.348c-0.732,-1.589 -1.098,-3.257 -1.098,-5.002c0,-1.995 0.331,-3.803 0.993,-5.424c0.663,-1.621 1.621,-3.132 2.876,-4.535c1.255,-1.403 2.823,-2.727 4.705,-3.974c1.882,-1.247 4.008,-2.525 6.378,-3.834c-6.134,-2.369 -10.996,-6.171 -14.586,-11.408c-3.59,-5.236 -5.385,-11.408 -5.385,-18.514c0,-5.611 0.976,-10.629 2.928,-15.055c1.952,-4.426 4.81,-8.182 8.574,-11.267c3.764,-3.086 8.434,-5.439 14.011,-7.06c5.577,-1.621 11.99,-2.431 19.239,-2.431c1.395,0 2.963,0.078 4.706,0.233c1.742,0.156 3.468,0.343 5.176,0.561c1.707,0.219 3.293,0.452 4.757,0.702c1.464,0.249 2.614,0.467 3.451,0.654l39.733,0Zm-83.649,119.129c0,1.558 0.366,3.07 1.098,4.535c0.732,1.465 1.934,2.758 3.607,3.88c1.673,1.122 3.869,2.011 6.587,2.665c2.719,0.655 6.065,0.982 10.038,0.982c10.875,0 19.065,-1.371 24.572,-4.114c5.507,-2.743 8.261,-6.421 8.261,-11.034c0,-3.927 -1.708,-6.546 -5.124,-7.855c-3.416,-1.309 -8.713,-1.963 -15.893,-1.963l-14.743,0c-1.883,0 -3.904,0.202 -6.065,0.607c-2.161,0.406 -4.148,1.107 -5.96,2.104c-1.812,0.998 -3.329,2.322 -4.548,3.974c-1.22,1.652 -1.83,3.725 -1.83,6.219Zm11.501,-85.092c0,5.673 1.186,10.068 3.556,13.184c2.37,3.117 5.96,4.676 10.769,4.676c5.019,0 8.644,-1.559 10.875,-4.676c2.23,-3.116 3.346,-7.511 3.346,-13.184c0,-5.611 -1.098,-10.068 -3.294,-13.372c-2.196,-3.304 -5.838,-4.956 -10.927,-4.956c-9.55,0 -14.325,6.11 -14.325,18.328Z" style="fill:#355c82;fill-rule:nonzero;"/></g></g></svg>