<?xml version="1.0" encoding="UTF-8" standalone="no"?>
<!DOCTYPE svg PUBLIC "-//W3C//DTD SVG 1.1//EN" "http://www.w3.org/Graphics/SVG/1.1/DTD/svg11.dtd">
<svg width="100%" height="100%" viewBox="0 0 2595 1880" version="1.1" xmlns="http://www.w3.org/2000/svg" xmlns:xlink="http://www.w3.org/1999/xlink" xml:space="preserve" style="fill-rule:evenodd;clip-rule:evenodd;stroke-linejoin:round;stroke-miterlimit:1.41421;">
    <g id="Artboard1" transform="matrix(1.01485,0,0,0.976974,-454.435,-1663.33)">
        <rect x="447.785" y="1702.53" width="2556.96" height="1924.05" style="fill:none;"/>
        <g id="Layer-1" transform="matrix(4.10569,0,0,4.26487,43.9719,-85.475)">
            <rect x="387.423" y="608.368" width="20.685" height="20.687" style="fill:rgb(53,92,130);fill-rule:nonzero;"/>
            <rect x="414.842" y="608.368" width="20.689" height="20.687" style="fill:rgb(139,209,85);fill-rule:nonzero;"/>
            <rect x="387.423" y="635.709" width="20.685" height="20.687" style="fill:rgb(53,92,130);fill-rule:nonzero;"/>
            <rect x="414.842" y="635.709" width="20.689" height="20.687" style="fill:rgb(53,92,130);fill-rule:nonzero;"/>
            <path d="M545.529,613.357L519.896,599.189L415.69,541.59L150.731,686.857L200.434,686.857L415.69,574.89L653.816,702.855L707.446,702.855L545.529,613.357Z" style="fill:rgb(139,209,85);fill-rule:nonzero;"/>
            <path d="M545.529,569.553L519.896,569.553L519.896,590.744L545.529,604.912L545.529,569.553Z" style="fill:rgb(139,209,85);fill-rule:nonzero;"/>
            <path d="M577.164,480.97C597.9,510.61 592.049,554.639 565.851,601.744C574.941,607.674 584.133,613.441 593.518,618.894C625.656,563.938 633.529,512.056 609.344,477.489C565.318,414.563 430.986,431.764 303.148,514.407C417.875,440.529 537.957,424.933 577.164,480.97" style="fill:rgb(53,92,130);fill-rule:nonzero;"/>
            <path d="M526.129,657.766C501.641,686.196 470.821,714.149 434.957,739.243C315.228,823.01 184.778,843.198 143.59,784.33C102.451,725.532 165.911,610.116 285.349,526.371C285.201,526.474 285.052,526.577 284.902,526.682C151.845,619.778 81.374,748.692 127.502,814.62C173.628,880.547 318.886,858.524 451.943,765.428C492.219,737.248 526.748,705.787 554.055,673.784C544.785,668.381 535.479,663.034 526.129,657.766" style="fill:rgb(53,92,130);fill-rule:nonzero;"/>
            <path d="M294.283,520.248C294.278,520.252 294.274,520.255 294.269,520.259C294.274,520.255 294.278,520.252 294.283,520.248" style="fill:rgb(31,139,203);fill-rule:nonzero;"/>
            <g transform="matrix(0.273406,0,0,0.144859,-340.016,191.483)">
                <path d="M2202.97,3276.17C2202.97,3276.17 2123.01,3352.66 2108.07,3366.95L2105.66,3374.3C2105.47,3443.28 2103.39,4194.5 2103.39,4194.5L2201.62,4194.5L2202.97,3276.17Z" style="fill:rgb(53,92,130);"/>
            </g>
        </g>
    </g>
</svg>
