<?xml version="1.0"?>
<svg width="179" height="104" xmlns="http://www.w3.org/2000/svg" xmlns:svg="http://www.w3.org/2000/svg">
 <linearGradient id="_lgradient_30" x1="0%" y1="50%" x2="96.592670536112%" y2="75.88157643386741%">
  <stop offset="0%" stop-color="rgb(250,254,254)"/>
  <stop offset="100%" stop-color="rgb(203,207,208)"/>
 </linearGradient>
 <linearGradient id="_lgradient_31" x1="0%" y1="50%" x2="96.5927767275489%" y2="75.881180113393%">
  <stop offset="0%" stop-color="rgb(229,52,56)"/>
  <stop offset="79.28078928445443%" stop-color="rgb(212,50,53)"/>
  <stop offset="100%" stop-color="rgb(195,47,50)"/>
 </linearGradient>
 <linearGradient id="_lgradient_32" x1="0%" y1="50%" x2="70.70925772638648%" y2="-20.71209848239164%">
  <stop offset="0%" stop-color="rgb(174,181,186)"/>
  <stop offset="100%" stop-color="rgb(128,130,133)"/>
 </linearGradient>
 <linearGradient id="_lgradient_36" x1="0%" y1="50%" x2="96.59269414827982%" y2="75.88148831069941%">
  <stop offset="0%" stop-color="rgb(250,254,254)"/>
  <stop offset="100%" stop-color="rgb(203,207,208)"/>
 </linearGradient>
 <linearGradient id="_lgradient_37" x1="0%" y1="50%" x2="96.59298931248975%" y2="75.88038669875783%">
  <stop offset="0%" stop-color="rgb(41,93,142)"/>
  <stop offset="79.27877859997555%" stop-color="rgb(40,83,127)"/>
  <stop offset="100%" stop-color="rgb(39,73,111)"/>
 </linearGradient>
 <linearGradient id="_lgradient_38" x1="0%" y1="50%" x2="70.70925772638643%" y2="-20.712098482391696%">
  <stop offset="0%" stop-color="rgb(174,181,186)"/>
  <stop offset="100%" stop-color="rgb(128,130,133)"/>
 </linearGradient>
 <g>
  <title>Layer 1</title>
  <g id="file-doc">
   <path d="m6.110817,103.357517c-3.168124,0 -5.664222,-2.496098 -5.664222,-5.664223l0,-89.955536c0,-3.168124 2.496098,-5.664222 5.664222,-5.664222l42.913687,0l27.361076,24.768973l0,70.850785c0,3.168125 -2.496098,5.664223 -5.664223,5.664223l-64.706543,0l0.096003,0z" fill-rule="evenodd" fill="url(#_lgradient_36)" stroke-width="0.096004" stroke="rgba(0,0,0,0)" id="svg_160"/>
   <path d="m49.408519,1.113498l-43.297702,0c-3.648143,0 -6.62426,2.976117 -6.62426,6.62426l0,89.955536c0,3.648144 2.976117,6.624261 6.62426,6.624261l64.706544,0c3.648143,0 6.62426,-2.976117 6.62426,-6.624261l0,-71.330804l-28.033102,-25.344996l0,0.096004zm-0.76803,2.016079l26.785053,24.192951l0,70.46677c0,2.592102 -2.112083,4.704185 -4.704185,4.704185l-64.706543,0c-2.592102,0 -4.704185,-2.112083 -4.704185,-4.704185l0,-89.955536c0,-2.592102 2.112083,-4.704185 4.704185,-4.704185l42.529671,0l0.096004,0z" fill-rule="evenodd" fill="rgb(114,115,118)" stroke-width="0.096004" stroke="rgba(0,0,0,0)" id="svg_161"/>
   <path d="m89.154081,78.108524c0,7.200283 -5.85623,12.96051 -12.960509,12.96051l-37.345468,0c-7.200283,0 -12.960509,-5.85623 -12.960509,-12.96051c0,-7.200283 5.85623,-12.960509 12.960509,-12.960509l37.345468,0c7.200283,0 12.960509,5.85623 12.960509,12.960509z" fill="rgb(37,60,90)" stroke-width="0.096004" stroke="rgba(0,0,0,0)" id="svg_162"/>
   <path d="m88.962074,76.092445c0,7.200283 -5.85623,12.96051 -12.960509,12.96051l-37.345468,0c-7.200283,0 -12.96051,-5.856231 -12.96051,-12.96051c0,-7.200283 5.85623,-12.960509 12.96051,-12.960509l37.345468,0c7.200283,0 12.960509,5.85623 12.960509,12.960509z" fill-rule="evenodd" fill="url(#_lgradient_37)" stroke-width="0.096004" stroke="rgba(0,0,0,0)" id="svg_163"/>
   <path d="m7.45487,38.170955l27.937098,0l0,-27.073065l-27.937098,0l0,27.073065z" fill="rgb(189,191,193)" stroke-width="0.096004" stroke="rgba(0,0,0,0)" id="svg_164"/>
   <path d="m56.128783,25.690464c-3.264128,0 -6.048237,-2.688106 -6.048237,-6.048238l0,-17.184675l25.633007,23.136909l-19.58477,0l0,0.096004z" fill-rule="evenodd" fill="url(#_lgradient_38)" stroke-width="0.096004" stroke="rgba(0,0,0,0)" id="svg_165"/>
   <path d="m49.408519,1.113498l0,18.624732c0,3.648144 2.976117,6.62426 6.624261,6.62426l21.312837,0l-28.033101,-25.344996l0.096003,0.096004zm1.344053,2.976117l23.232913,21.024826l-17.856702,0c-2.976117,0 -5.376211,-2.400094 -5.376211,-5.376211l0,-15.648615z" fill-rule="evenodd" fill="rgb(114,115,118)" stroke-width="0.096004" stroke="rgba(0,0,0,0)" id="svg_166"/>
   <path d="m47.075846,77.150065q0,3.525391 -2.006836,5.400391q-2.006836,1.875 -5.795898,1.875l-4.042969,0l0,-14.277344l4.482422,0q3.496094,0 5.429688,1.845703q1.933593,1.845703 1.933593,5.15625zm-3.144531,0.078125q0,-4.599609 -4.0625,-4.599609l-1.611328,0l0,9.296875l1.298828,0q4.375,0 4.375,-4.697266zm19.0625,0.039063q0,3.544921 -1.757812,5.449218q-1.757813,1.904297 -5.039063,1.904297q-3.28125,0 -5.039062,-1.904297q-1.757813,-1.904297 -1.757813,-5.46875q0,-3.564453 1.762695,-5.444336q1.762696,-1.879882 5.053711,-1.879882q3.291016,0 5.03418,1.894531q1.743164,1.894531 1.743164,5.449219zm-10.419922,0q0,2.392578 0.908203,3.603515q0.908203,1.210938 2.714844,1.210938q3.623047,0 3.623047,-4.814453q0,-4.824219 -3.603516,-4.824219q-1.80664,0 -2.724609,1.21582q-0.917969,1.21582 -0.917969,3.608399zm19.44336,-4.804688q-1.708985,0 -2.646485,1.28418q-0.9375,1.284179 -0.9375,3.579101q0,4.775391 3.583985,4.775391q1.503906,0 3.642578,-0.751953l0,2.539062q-1.757813,0.732422 -3.925782,0.732422q-3.115234,0 -4.765625,-1.889648q-1.65039,-1.889649 -1.65039,-5.424805q0,-2.226562 0.810547,-3.901367q0.810547,-1.674805 2.329101,-2.568359q1.518555,-0.893555 3.559571,-0.893555q2.080078,0 4.179687,1.005859l-0.976562,2.460938q-0.800782,-0.38086 -1.611329,-0.664063q-0.810546,-0.283203 -1.591796,-0.283203z" fill-rule="evenodd" fill="rgb(255,255,255)" stroke="rgba(0,0,0,0)" stroke-linecap="square" id="svg_199"/>
  </g>
  <g id="file-pdf">
   <path d="m95.068712,103.357517c-3.168125,0 -5.664223,-2.496098 -5.664223,-5.664223l0,-89.955536c0,-3.168124 2.496098,-5.664222 5.664223,-5.664222l42.913686,0l27.361076,24.768973l0,70.850785c0,3.168125 -2.496098,5.664223 -5.664223,5.664223l-64.706543,0l0.096004,0z" fill-rule="evenodd" fill="url(#_lgradient_30)" stroke-width="0.096004" stroke="rgba(0,0,0,0)" id="svg_136"/>
   <path d="m138.366413,1.113498l-43.297701,0c-3.648144,0 -6.624261,2.976117 -6.624261,6.62426l0,89.955536c0,3.648144 2.976117,6.624261 6.624261,6.624261l64.706543,0c3.648143,0 6.62426,-2.976117 6.62426,-6.624261l0,-71.330804l-28.033102,-25.344996l0,0.096004zm-0.76803,2.016079l26.785053,24.192951l0,70.46677c0,2.592102 -2.112083,4.704185 -4.704185,4.704185l-64.706543,0c-2.592102,0 -4.704185,-2.112083 -4.704185,-4.704185l0,-89.955536c0,-2.592102 2.112083,-4.704185 4.704185,-4.704185l42.529671,0l0.096004,0z" fill-rule="evenodd" fill="rgb(114,115,118)" stroke-width="0.096004" stroke="rgba(0,0,0,0)" id="svg_137"/>
   <path d="m178.111976,78.108524c0,7.200283 -5.856231,12.96051 -12.96051,12.96051l-37.345468,0c-7.200283,0 -12.960509,-5.85623 -12.960509,-12.96051c0,-7.200283 5.85623,-12.960509 12.960509,-12.960509l37.345468,0c7.200283,0 12.96051,5.85623 12.96051,12.960509z" fill="rgb(167,44,46)" stroke-width="0.096004" stroke="rgba(0,0,0,0)" id="svg_138"/>
   <path d="m177.919968,76.092445c0,7.200283 -5.85623,12.96051 -12.960509,12.96051l-37.345468,0c-7.200283,0 -12.96051,-5.856231 -12.96051,-12.96051c0,-7.200283 5.856231,-12.960509 12.96051,-12.960509l37.345468,0c7.200283,0 12.960509,5.85623 12.960509,12.960509z" fill-rule="evenodd" fill="url(#_lgradient_31)" stroke-width="0.096004" stroke="rgba(0,0,0,0)" id="svg_139"/>
   <path d="m96.412764,36.826902l28.033102,0l0,-27.073064l-28.033102,0l0,27.073064z" fill="rgb(189,191,193)" stroke-width="0.096004" stroke="rgba(0,0,0,0)" id="svg_140"/>
   <path d="m145.086678,25.690464c-3.264129,0 -6.048238,-2.688106 -6.048238,-6.048238l0,-17.184675l25.633007,23.136909l-19.584769,0l0,0.096004z" fill-rule="evenodd" fill="url(#_lgradient_32)" stroke-width="0.096004" stroke="rgba(0,0,0,0)" id="svg_141"/>
   <path d="m138.366413,1.113498l0,18.624732c0,3.648144 2.976117,6.62426 6.624261,6.62426l21.312837,0l-28.033101,-25.344996l0.096003,0.096004zm1.344053,2.976117l23.232913,21.024826l-17.856701,0c-2.976117,0 -5.376212,-2.400094 -5.376212,-5.376211l0,-15.648615z" fill-rule="evenodd" fill="rgb(114,115,118)" stroke-width="0.096004" stroke="rgba(0,0,0,0)" id="svg_142"/>
   <path d="m133.744809,75.533529l0.996093,0q1.396485,0 2.089844,-0.551758q0.69336,-0.551758 0.69336,-1.606445q0,-1.064454 -0.581055,-1.572266q-0.581055,-0.507813 -1.821289,-0.507813l-1.376953,0l0,4.238282zm6.835937,-2.265625q0,2.304687 -1.440429,3.52539q-1.44043,1.220703 -4.09668,1.220703l-1.298828,0l0,5.078125l-3.027344,0l0,-14.277343l4.560547,0q2.597656,0 3.950195,1.118164q1.352539,1.118164 1.352539,3.334961zm14.541016,2.548828q0,3.52539 -2.006836,5.40039q-2.006836,1.875 -5.795899,1.875l-4.042968,0l0,-14.277343l4.482422,0q3.496093,0 5.429687,1.845703q1.933594,1.845703 1.933594,5.15625zm-3.144531,0.078125q0,-4.59961 -4.0625,-4.59961l-1.611329,0l0,9.296875l1.298829,0q4.375,0 4.375,-4.697265zm9.082031,7.197265l-2.978516,0l0,-14.277343l8.183594,0l0,2.480468l-5.205078,0l0,3.681641l4.84375,0l0,2.470703l-4.84375,0l0,5.644531z" fill-rule="evenodd" fill="rgb(255,255,255)" stroke="rgba(0,0,0,0)" stroke-linecap="square" id="svg_209"/>
  </g>
 </g>
</svg>