<?xml version="1.0"?>
<svg width="91" height="104" xmlns="http://www.w3.org/2000/svg" xmlns:svg="http://www.w3.org/2000/svg">
 <linearGradient y2="75.88214607835741%" x2="96.59251790060432%" y1="50%" x1="0%" id="_lgradient_15">
  <stop stop-color="rgb(250,254,254)" offset="0%"/>
  <stop stop-color="rgb(203,207,208)" offset="100%"/>
 </linearGradient>
 <linearGradient y2="75.8815980772432%" x2="96.59266473686313%" y1="50%" x1="0%" id="_lgradient_16">
  <stop stop-color="rgb(229,52,56)" offset="0%"/>
  <stop stop-color="rgb(212,50,53)" offset="79.28475308751051%"/>
  <stop stop-color="rgb(195,47,50)" offset="100%"/>
 </linearGradient>
 <linearGradient y2="-20.71111844056762%" x2="70.71023779399994%" y1="50%" x1="0%" id="_lgradient_17">
  <stop stop-color="rgb(174,181,186)" offset="0%"/>
  <stop stop-color="rgb(128,129,133)" offset="100%"/>
 </linearGradient>
 <g>
  <title>Layer 1</title>
  <g id="file-jpg">
   <path id="svg_86" stroke="rgba(0,0,0,0)" stroke-width="0.096" fill="url(#_lgradient_15)" fill-rule="evenodd" d="m7.11082,103.20148c-3.16813,0 -5.66423,-2.49609 -5.66423,-5.66422l0,-90.05154c0,-3.16812 2.4961,-5.66422 5.66423,-5.66422l42.91368,0l27.36108,24.76897l0,70.85079c0,3.16812 -2.4961,5.66422 -5.66422,5.66422l-64.70655,0l0.09601,0.096z"/>
   <path id="svg_87" stroke="rgba(0,0,0,0)" stroke-width="0.096" fill="rgb(114,115,118)" fill-rule="evenodd" d="m50.40852,0.86146l-43.2977,0c-3.64815,0 -6.62426,2.97612 -6.62426,6.62426l0,90.05154c0,3.64814 2.97611,6.62426 6.62426,6.62426l64.70654,0c3.64814,0 6.62426,-2.97612 6.62426,-6.62426l0,-71.3308l-28.0331,-25.345zm-0.76803,2.01608l26.78505,24.19295l0,70.46677c0,2.5921 -2.11208,4.70419 -4.70418,4.70419l-64.70655,0c-2.5921,0 -4.70418,-2.11209 -4.70418,-4.70419l0,-90.05154c0,-2.5921 2.11208,-4.70418 4.70418,-4.70418l42.52968,0l0.096,0.096z"/>
   <path id="svg_88" stroke="rgba(0,0,0,0)" stroke-width="0.096" fill="rgb(132,134,136)" d="m70.1853,22.2703l0,31.39324l-61.92244,0l0,-40.12958l49.63395,0l12.28849,8.73634z"/>
   <path id="svg_89" stroke="rgba(0,0,0,0)" stroke-width="0.096" fill="rgb(189,191,193)" d="m70.1853,53.66354l-61.92244,0l0,-1.44006l12.00047,-10.56042l3.64815,1.15205l8.92835,-21.98486l9.79238,20.83281l8.16032,-12.00047l5.47222,9.60038l6.24024,-16.32064l7.68031,14.01655l0,16.70466z"/>
   <path id="svg_90" stroke="rgba(0,0,0,0)" stroke-width="0.096" fill="rgb(189,191,193)" d="m23.23945,22.2703c0,2.88012 -2.40009,5.28021 -5.28021,5.28021c-2.88011,0 -5.2802,-2.40009 -5.2802,-5.28021c0,-2.88011 2.40009,-5.28021 5.2802,-5.28021c2.88012,0 5.28021,2.4001 5.28021,5.28021z"/>
   <path id="svg_91" stroke="rgba(0,0,0,0)" stroke-width="0.096" fill="rgb(105,107,109)" d="m70.1853,22.2703l-0.57603,0l0,30.72121l-60.67438,0l0,-38.78552l48.76992,0l12.09647,8.64033l0.38402,-0.57602l-0.57603,0l0.57603,0l0.38401,-0.48002l-12.48049,-8.92835l-50.49798,0l0,41.47363l63.26648,0l0,-32.35327l-0.28801,-0.19201l-0.38401,0.48002z"/>
   <path id="svg_92" stroke="rgba(0,0,0,0)" stroke-width="0.096" fill="rgb(148,42,42)" d="m90.15408,77.85649c0,7.20028 -5.85623,12.96051 -12.96051,12.96051l-37.34547,0c-7.20028,0 -12.96051,-5.85623 -12.96051,-12.96051c0,-7.20029 5.85623,-12.96051 12.96051,-12.96051l37.34547,0c7.20029,0 12.96051,5.85623 12.96051,12.96051z"/>
   <path id="svg_93" stroke="rgba(0,0,0,0)" stroke-width="0.096" fill="url(#_lgradient_16)" fill-rule="evenodd" d="m89.96207,75.84041c0,7.20028 -5.85623,12.96051 -12.96051,12.96051l-37.34546,0c-7.20029,0 -12.96051,-5.85623 -12.96051,-12.96051c0,-7.20029 5.85623,-12.96051 12.96051,-12.96051l37.34546,0c7.20029,0 12.96051,5.85623 12.96051,12.96051z"/>
   <path id="svg_94" stroke="rgba(0,0,0,0)" stroke-width="0.096" fill="url(#_lgradient_17)" fill-rule="evenodd" d="m57.12878,25.53443c-3.26412,0 -6.04823,-2.68811 -6.04823,-6.04824l0,-17.18467l25.633,23.13691l-19.58477,0l0,0.096z"/>
   <path id="svg_95" stroke="rgba(0,0,0,0)" stroke-width="0.096" fill="rgb(114,115,118)" fill-rule="evenodd" d="m50.40852,0.86146l0,18.62473c0,3.64815 2.97612,6.62426 6.62426,6.62426l21.31284,0l-28.0331,-25.34499l0.096,0.096zm1.34405,2.97612l23.23292,21.02482l-17.85671,0c-2.97611,0 -5.37621,-2.40009 -5.37621,-5.37621l0,-15.64861z"/>
   <path id="svg_195" stroke-linecap="square" stroke="rgba(0,0,0,0)" fill="rgb(255,255,255)" fill-rule="evenodd" d="m41.32677,86.47409q-1.02539,0 -1.78711,-0.21484l0,-2.51953q0.78125,0.19531 1.42578,0.19531q0.99609,0 1.42578,-0.62012q0.42969,-0.62011 0.42969,-1.93847l0,-13.37891l3.02734,0l0,13.35938q0,2.5 -1.14258,3.80859q-1.14257,1.30859 -3.3789,1.30859zm11.14258,-11.75781l0.99609,0q1.39648,0 2.08984,-0.55176q0.69336,-0.55175 0.69336,-1.60644q0,-1.06445 -0.58105,-1.57227q-0.58106,-0.50781 -1.82129,-0.50781l-1.37695,0l0,4.23828zm6.83593,-2.26562q0,2.30468 -1.44043,3.52539q-1.44043,1.2207 -4.09668,1.2207l-1.29882,0l0,5.07813l-3.02735,0l0,-14.27735l4.56055,0q2.59765,0 3.95019,1.11817q1.35254,1.11816 1.35254,3.33496zm8.11524,1.80664l5.66406,0l0,7.40234q-1.37695,0.44922 -2.59277,0.62988q-1.21582,0.18067 -2.48536,0.18067q-3.23242,0 -4.93652,-1.89942q-1.7041,-1.89941 -1.7041,-5.4541q0,-3.45703 1.97754,-5.39062q1.97754,-1.9336 5.4834,-1.9336q2.19726,0 4.23828,0.87891l-1.00586,2.42187q-1.5625,-0.78125 -3.25195,-0.78125q-1.96289,0 -3.14454,1.31836q-1.18164,1.31836 -1.18164,3.54493q0,2.32421 0.95215,3.5498q0.95215,1.22559 2.76856,1.22559q0.94726,0 1.92383,-0.19532l0,-2.97851l-2.70508,0l0,-2.51953z"/>
  </g>
 </g>
</svg>